<svg id="Layer_1" data-name="Layer 1" xmlns="http://www.w3.org/2000/svg" viewBox="0 0 352.72 37.99"><defs><style>.cls-1{fill:#ffcd34;}.cls-2{fill:#fff;stroke:#fff;stroke-width:0.2px;}</style></defs><title>web</title><path class="cls-1" d="M127.43,25h3.92c3.92,0,6.72,2.61,6.72,6.39s-2.78,6.38-6.72,6.38h-3.92Zm3.79,10.46c2.83,0,4.13-1.69,4.13-4.07s-1.3-4.08-4.13-4.08h-1.17v8.15Z"/><path class="cls-1" d="M140.44,29.78H143l0,1.45a2.41,2.41,0,0,1,2.34-1.62,2.54,2.54,0,0,1,1.24.32l-.8,2.31a2.22,2.22,0,0,0-1-.24c-1.15,0-1.76.53-1.76,2.23v3.55h-2.54Z"/><path class="cls-1" d="M148.49,26.86a1.59,1.59,0,0,1,1.62-1.58,1.59,1.59,0,1,1,0,3.17A1.59,1.59,0,0,1,148.49,26.86Zm.34,2.92h2.54v8h-2.54Z"/><path class="cls-1" d="M153.56,29.78h2.8l1.13,2.39a12.86,12.86,0,0,1,.65,2.12,13.68,13.68,0,0,1,.62-2.12l1.09-2.39h2.57L158.14,38h-.24Z"/><path class="cls-1" d="M168.43,35.85a3.48,3.48,0,0,0,2-.64l1.45,1.56A4.81,4.81,0,0,1,168.47,38c-2.85,0-4.69-1.73-4.69-4.19a4.18,4.18,0,0,1,4.41-4.15c2.87,0,4.43,2.14,4.24,4.94h-6.06A1.88,1.88,0,0,0,168.43,35.85Zm1.45-2.76a1.52,1.52,0,0,0-1.67-1.41,1.71,1.71,0,0,0-1.88,1.41Z"/><path class="cls-1" d="M175.1,29.78h2.53l0,1.32a2.72,2.72,0,0,1,2.53-1.49c1.75,0,3,1.28,3,3.55v4.62h-2.53V33.33c0-.9-.43-1.41-1.33-1.41a1.46,1.46,0,0,0-1.62,1.58v4.28H175.1Z"/><path class="cls-1" d="M191.84,34.78v-2.9h-1.18v-2.1h1.18V25.61h2.52v4.17h2v2.1h-2v3c0,.81.26,1,.65,1a1.58,1.58,0,0,0,.89-.34l1,1.76a3.4,3.4,0,0,1-2.24.74C193,38,191.84,37.18,191.84,34.78Z"/><path class="cls-1" d="M198.71,33.8A4.41,4.41,0,1,1,203.12,38,4.2,4.2,0,0,1,198.71,33.8Zm6.22,0a1.82,1.82,0,1,0-3.63,0,1.82,1.82,0,1,0,3.63,0Z"/><path class="cls-1" d="M215.59,25h3.92c3.93,0,6.72,2.61,6.72,6.39s-2.78,6.38-6.72,6.38h-3.92Zm3.79,10.46c2.84,0,4.13-1.69,4.13-4.07s-1.29-4.08-4.13-4.08h-1.16v8.15Z"/><path class="cls-1" d="M228.81,26.86a1.58,1.58,0,0,1,1.61-1.58,1.59,1.59,0,1,1,0,3.17A1.59,1.59,0,0,1,228.81,26.86Zm.33,2.92h2.54v8h-2.54Z"/><path class="cls-1" d="M234.12,36.43l1.48-1.32a2.86,2.86,0,0,0,2,.85c.83,0,1.09-.15,1.09-.49s-.51-.43-1.81-.77a2.59,2.59,0,0,1-2.3-2.55c0-1.8,1.39-2.54,3.1-2.54a3.87,3.87,0,0,1,2.91,1.11l-1.36,1.45a2.45,2.45,0,0,0-1.54-.6c-.58,0-.86.15-.86.47s.51.5,1.6.75,2.63.8,2.63,2.49c0,1.47-.77,2.67-3.29,2.67A4.44,4.44,0,0,1,234.12,36.43Z"/><path class="cls-1" d="M243.26,33.76a4.14,4.14,0,0,1,4.37-4.15,3.9,3.9,0,0,1,3.36,1.6l-1.8,1.46a1.9,1.9,0,0,0-1.56-.84,1.74,1.74,0,0,0-1.78,1.93,1.76,1.76,0,0,0,1.78,2,2.1,2.1,0,0,0,1.62-.75L251,36.5A4.05,4.05,0,0,1,247.63,38,4.15,4.15,0,0,1,243.26,33.76Z"/><path class="cls-1" d="M253,33.8A4.41,4.41,0,1,1,257.38,38,4.21,4.21,0,0,1,253,33.8Zm6.22,0a1.82,1.82,0,1,0-3.62,0,1.82,1.82,0,1,0,3.62,0Z"/><path class="cls-1" d="M263.12,29.78h2.8l1.13,2.39a12.86,12.86,0,0,1,.65,2.12,13.68,13.68,0,0,1,.62-2.12l1.09-2.39H272L267.7,38h-.24Z"/><path class="cls-1" d="M278,35.85a3.48,3.48,0,0,0,2-.64l1.45,1.56A4.81,4.81,0,0,1,278,38c-2.85,0-4.69-1.73-4.69-4.19a4.18,4.18,0,0,1,4.41-4.15c2.87,0,4.43,2.14,4.24,4.94h-6.06A1.88,1.88,0,0,0,278,35.85Zm1.45-2.76a1.52,1.52,0,0,0-1.67-1.41,1.71,1.71,0,0,0-1.88,1.41Z"/><path class="cls-1" d="M284.66,29.78h2.53l0,1.45a2.43,2.43,0,0,1,2.35-1.62,2.54,2.54,0,0,1,1.24.32l-.81,2.31a2.21,2.21,0,0,0-1-.24c-1.15,0-1.77.53-1.77,2.23v3.55h-2.53Z"/><path class="cls-1" d="M295.78,28.45a2.25,2.25,0,0,1,.72.47,2.14,2.14,0,0,1,.48.66,2.2,2.2,0,0,1,.23,1,2.35,2.35,0,0,1-.3,1.15,2.11,2.11,0,0,1-.85.85,2.32,2.32,0,0,1-1.13.31,2.29,2.29,0,0,1-1.13-.31,2.11,2.11,0,0,1-.85-.85,2.35,2.35,0,0,1-.3-1.15,2.23,2.23,0,0,1,.19-.94,2.32,2.32,0,0,1,.5-.71,2.37,2.37,0,0,1,.65-.45,2.21,2.21,0,0,1,.94-.2A2.29,2.29,0,0,1,295.78,28.45Zm1.61,1a2.44,2.44,0,0,0-.52-.77,2.85,2.85,0,0,0-.84-.58,2.5,2.5,0,0,0-1.1-.24,2.68,2.68,0,0,0-1.18.27,2.93,2.93,0,0,0-.75.53,3,3,0,0,0-.56.84,2.72,2.72,0,0,0-.21,1.07,2.83,2.83,0,0,0,.35,1.35,2.6,2.6,0,0,0,1,1,2.73,2.73,0,0,0,1.35.36,2.65,2.65,0,0,0,1.18-.27,2.7,2.7,0,0,0,.78-.57,2.49,2.49,0,0,0,.55-.86,2.75,2.75,0,0,0-.05-2.13ZM294.84,31a1,1,0,0,1,.39.06.49.49,0,0,1,.19.19,1.46,1.46,0,0,1,.08.4,1.91,1.91,0,0,0,.05.45h.63a1.82,1.82,0,0,1,0-.4c0-.18,0-.3,0-.38A1,1,0,0,0,296,31a.76.76,0,0,0-.21-.19,1.4,1.4,0,0,0-.33-.11.92.92,0,0,0,.33-.08.66.66,0,0,0,.29-.26.83.83,0,0,0,0-.81.9.9,0,0,0-.27-.28,1,1,0,0,0-.41-.15,3.57,3.57,0,0,0-.54,0h-1.07v3h.67V31Zm.35-1.39a.51.51,0,0,1,.24.16.39.39,0,0,1,.09.26.47.47,0,0,1-.08.26.44.44,0,0,1-.22.18,1.13,1.13,0,0,1-.32.05h-.44v-.95h.44A1,1,0,0,1,295.19,29.59Z"/><path class="cls-2" d="M276.19,3.54l.08,2.72h-.36c-.33-1.74-.75-2-3.05-2v8.12a1.22,1.22,0,0,0,1.38,1.38v.38H270v-.38a1.22,1.22,0,0,0,1.38-1.38V4.23c-2.3,0-2.72.29-3.05,2H268L268,3.54Z"/><path class="cls-2" d="M262.08,3.34c-2.61,0-4.72,2.14-4.72,5.47s2.11,5.47,4.72,5.47,4.72-2.14,4.72-5.47S264.68,3.34,262.08,3.34Zm0,10.32c-2,0-3.11-1.9-3.11-4.85S260.1,4,262.08,4s3.11,1.9,3.11,4.85S264.06,13.66,262.08,13.66Z"/><path class="cls-2" d="M284.44,12.81,280.7,3.39h-.35s-3.13,8.18-3.52,9.14-.85,1.2-1.22,1.2v.38h2.88v-.38a.86.86,0,0,1-.9-.76,1.56,1.56,0,0,1,.05-.4c0-.08.33-.88.7-1.9H282c.38,1,.66,1.79.68,1.84a1.82,1.82,0,0,1,.11.46c0,.41-.33.76-1,.76v.38h3.71v-.38A1.36,1.36,0,0,1,284.44,12.81Zm-5.82-2.88c.71-1.94,1.56-4.23,1.56-4.23S281,8,281.73,9.93Z"/><path class="cls-2" d="M246.85,11.36a2.74,2.74,0,0,1-2.75,2.06h-1.67c-.62,0-.88-.21-.88-.71V9h2.27c.88,0,1.35.49,1.49,1.43h.36V6.73h-.39c-.05,1-.58,1.5-1.37,1.5h-2.36V4.7c0-.39.25-.47.58-.47h2c1.26,0,1.7.52,2,1.7h.36l-.08-2.39h-7.6v.39c.88,0,1.28.42,1.28,1.37v7.05c0,1-.4,1.38-1.28,1.38v.38h7.79l.69-2.75Z"/><path class="cls-2" d="M254.89,3.33l.3,3.48h-.38c-.53-1.72-1.4-2.77-2.67-2.77a1.34,1.34,0,0,0-1.42,1.42c0,.94.68,1.49,1.54,2.06L254,8.67a3.45,3.45,0,0,1,1.54,2.67,2.92,2.92,0,0,1-3,3c-1,0-1.7-.52-2.22-.52-.29,0-.43.29-.49.52h-.36L249,10.82h.38c.65,1.79,1.59,2.85,2.91,2.85A1.67,1.67,0,0,0,254,11.89,2.2,2.2,0,0,0,252.86,10l-2.09-1.45A2.81,2.81,0,0,1,249.45,6a2.52,2.52,0,0,1,2.61-2.66c.71,0,1.51.46,1.95.46a.46.46,0,0,0,.49-.46Z"/><path class="cls-2" d="M233.89,3.54v.39c.83,0,1.32.63,1.32,1.59v5.56l-5.49-7.54h-2.39v.39a1.34,1.34,0,0,1,1,.46l.31.41v7.09c0,1.2-.42,1.84-1.38,1.84v.38h3.38v-.38c-.83,0-1.32-.55-1.32-1.52V5.73l6.31,8.55h.23V5.77c0-1.35.54-1.84,1.37-1.84V3.54Z"/><path class="cls-2" d="M222.17,3.54v.39c.83,0,1.32.63,1.32,1.59v5.56L218,3.54h-2.39v.39a1.34,1.34,0,0,1,1,.46l.31.41v7.09c0,1.2-.41,1.84-1.37,1.84v.38H219v-.38c-.82,0-1.32-.55-1.32-1.52V5.73L224,14.28h.22V5.77c0-1.35.54-1.84,1.37-1.84V3.54Z"/><path class="cls-2" d="M208,.5V.11h-3.27l-4.25,11.42L196.21.11h-3.32V.5c1.4,0,1.78.76,1.78,2.14v8.59c0,2-.56,2.5-1.81,2.5v.38h4.31v-.38c-1.21,0-1.79-.52-1.79-2.5v-9l4.45,11.89h.41L204.77,2v9.2c0,2-.45,2.5-1.7,2.5v.38H208v-.38c-1.21,0-1.68-.52-1.68-2.5V2.45C206.33.85,207.19.5,208,.5Z"/><path class="cls-2" d="M212,5.3a1.21,1.21,0,0,1,1.38-1.37V3.54h-4.26v.39a1.21,1.21,0,0,1,1.37,1.37v7.05a1.21,1.21,0,0,1-1.37,1.38v.38h4.26v-.38A1.22,1.22,0,0,1,212,12.35Z"/><path class="cls-2" d="M173.09,3.35c-2.61,0-4.72,2.15-4.72,5.48s2.11,5.47,4.72,5.47,4.71-2.14,4.71-5.47S175.69,3.35,173.09,3.35Zm0,10.33c-2,0-3.11-1.9-3.11-4.85S171.11,4,173.09,4s3.1,1.9,3.1,4.86S175.06,13.68,173.09,13.68Z"/><path class="cls-2" d="M187,3.54h-7.68v.39c.88,0,1.28.42,1.28,1.37v7.05c0,1-.4,1.38-1.28,1.38v.38h4.08v-.38A1.2,1.2,0,0,1,182,12.35V9h2.19c.88,0,1.35.49,1.49,1.43h.35V6.73h-.38c-.06,1-.58,1.5-1.38,1.5H182V4.7c0-.39.25-.47.57-.47h2.12c1.26,0,1.7.52,2,1.7H187Z"/><path class="cls-2" d="M151.68,3.56l.08,2.71h-.36c-.33-1.74-.75-2-3.05-2v8.13a1.21,1.21,0,0,0,1.38,1.37v.38h-4.26v-.38a1.21,1.21,0,0,0,1.38-1.37V4.24c-2.3,0-2.72.29-3,2h-.36l.08-2.71Z"/><path class="cls-2" d="M159.83,3.94V3.56h3.24v.38a2.23,2.23,0,0,0-1.51,1c-.35.56-2.61,4.33-2.61,4.33v3.08c0,1,.37,1.37,1.48,1.37v.38H156v-.38c1.1,0,1.48-.35,1.48-1.37V9.46s-2.5-4-2.8-4.48a2,2,0,0,0-1.48-1V3.56h4.17v.38c-.58,0-1,.26-1,.56a1.23,1.23,0,0,0,.17.55c.07.13,2.11,3.49,2.11,3.49s2-3.53,2.09-3.62a.77.77,0,0,0,.08-.34C160.79,4.28,160.62,3.94,159.83,3.94Z"/><path class="cls-2" d="M134.82,3.33l.31,3.48h-.39c-.52-1.72-1.4-2.77-2.66-2.77a1.34,1.34,0,0,0-1.43,1.42c0,.94.69,1.49,1.54,2.06l1.7,1.15a3.45,3.45,0,0,1,1.54,2.67,2.92,2.92,0,0,1-3,3c-1.05,0-1.7-.52-2.23-.52-.29,0-.42.29-.49.52h-.36l-.44-3.51h.39c.64,1.79,1.59,2.85,2.91,2.85A1.67,1.67,0,0,0,134,11.89,2.19,2.19,0,0,0,132.79,10l-2.08-1.45A2.81,2.81,0,0,1,129.39,6,2.52,2.52,0,0,1,132,3.33c.71,0,1.51.46,1.95.46a.47.47,0,0,0,.49-.46Z"/><path class="cls-2" d="M140.64,5.31A1.21,1.21,0,0,1,142,3.94V3.56h-4.25v.38a1.21,1.21,0,0,1,1.37,1.37v7.06a1.21,1.21,0,0,1-1.37,1.37v.38H142v-.38a1.21,1.21,0,0,1-1.37-1.37Z"/><path class="cls-2" d="M116.43,11.36a2.73,2.73,0,0,1-2.74,2.06H112c-.62,0-.88-.21-.88-.71V9h2.28c.87,0,1.34.49,1.48,1.43h.35V6.73h-.38c-.06,1-.58,1.5-1.37,1.5h-2.36V4.7c0-.39.25-.47.58-.47h2c1.27,0,1.71.52,2,1.7h.36L116,3.54h-7.61v.39c.89,0,1.29.42,1.29,1.37v7.05c0,1-.4,1.38-1.29,1.38v.38h7.8l.68-2.75Z"/><path class="cls-2" d="M126.48,13.26c-.25-.3-2.59-3.51-3.11-4.22,1.89-.4,2.56-1.37,2.56-2.75,0-1.65-1.24-2.75-3.48-2.75h-4.23v.39c.89,0,1.29.42,1.29,1.37v7.05c0,1-.4,1.38-1.29,1.38v.38h4.09v-.38c-.89,0-1.29-.43-1.29-1.38V9.25l.8,0,3.42,4.88h2.31v-.33A1.43,1.43,0,0,1,126.48,13.26ZM121,8.62V5.05c0-.73.14-.9,1-.9,1.78,0,2.44.87,2.44,2.19,0,1.62-1.22,2.28-3,2.28Z"/><path class="cls-2" d="M94,5.3a1.21,1.21,0,0,1,1.37-1.37V3.54H91.15v.39A1.21,1.21,0,0,1,92.53,5.3v7.05a1.22,1.22,0,0,1-1.38,1.38v.38h4.26v-.38A1.21,1.21,0,0,1,94,12.35Z"/><path class="cls-2" d="M101,3.93V3.54H97.14v.39c.47,0,1,.3,1.29,1.09l3.81,9.26h.25L105.81,5c.28-.74.74-1.09,1.18-1.09V3.54h-3v.39c.66,0,1,.35,1,.82a1.22,1.22,0,0,1-.09.42l-2.22,6.22-2.63-6.32A1.23,1.23,0,0,1,100,4.6C100,4.18,100.35,3.93,101,3.93Z"/><path class="cls-2" d="M65.55.5c1.15,0,1.75.57,1.75,2.22V9.25c0,3.3,1.81,5.05,5,5.05a4.48,4.48,0,0,0,4.8-4.83V2.34c0-1.1.34-1.84,1.65-1.84V.11H74.55V.5c1.18,0,1.67.52,1.7,2s.11,5.15.11,7.38a3.75,3.75,0,0,1-7.49-.22V2.31c0-1.08.41-1.81,1.65-1.81V.11h-5Z"/><path class="cls-2" d="M85.58,3.54v.39c.83,0,1.32.63,1.32,1.59v5.56L81.41,3.54H79v.39a1.37,1.37,0,0,1,1,.46l.3.41v7.09c0,1.2-.41,1.84-1.37,1.84v.38h3.37v-.38c-.82,0-1.32-.55-1.32-1.52V5.73l6.32,8.55h.22V5.77c0-1.35.55-1.84,1.37-1.84V3.54Z"/><path class="cls-2" d="M306.71.48c-.82,0-1.68.36-1.68,2v8.79c0,2,.48,2.5,1.68,2.5v.38h-4.94v-.38c1.26,0,1.7-.52,1.7-2.5V2l-4.54,12.13h-.4L294.1,2.24v9c0,2,.56,2.5,1.78,2.5v.38h-4.32v-.38c1.26,0,1.82-.52,1.82-2.5V2.64c0-1.38-.38-2.16-1.78-2.16V.1h3.32l4.27,11.43L303.45.1h3.26Z"/><path class="cls-2" d="M317.44,8.81c0,3.34-2.09,5.48-4.71,5.48S308,12.15,308,8.81s2.12-5.47,4.72-5.47S317.44,5.48,317.44,8.81Zm-1.6,0c0-2.95-1.14-4.85-3.11-4.85s-3.1,1.9-3.1,4.85,1.12,4.86,3.1,4.86S315.84,11.77,315.84,8.81Z"/><path class="cls-2" d="M328,13.79v.32h-2.3l-3.42-4.88c-.26,0-.54,0-.82,0v3.1c0,1,.4,1.38,1.3,1.38v.38h-4.08v-.38c.88,0,1.3-.42,1.3-1.38v-7c0-1-.42-1.38-1.3-1.38V3.54h4.2c2.26,0,3.5,1.1,3.5,2.74,0,1.39-.68,2.35-2.56,2.76.52.71,2.86,3.93,3.1,4.23A1.5,1.5,0,0,0,328,13.79Zm-6.18-5.16c1.82,0,3-.67,3-2.29,0-1.32-.66-2.2-2.44-2.2-.82,0-1,.18-1,.9V8.63Z"/><path class="cls-2" d="M338.69,13.79v.32h-2.3L333,9.23c-.25,0-.54,0-.82,0v3.1c0,1,.4,1.38,1.3,1.38v.38h-4.07v-.38c.88,0,1.3-.42,1.3-1.38v-7c0-1-.42-1.38-1.3-1.38V3.54h4.19c2.26,0,3.5,1.1,3.5,2.74,0,1.39-.68,2.35-2.56,2.76.52.71,2.86,3.93,3.1,4.23A1.5,1.5,0,0,0,338.69,13.79Zm-6.18-5.16c1.82,0,3-.67,3-2.29,0-1.32-.66-2.2-2.44-2.2-.82,0-1,.18-1,.9V8.63Z"/><path class="cls-2" d="M343.35,12.35a1.21,1.21,0,0,0,1.36,1.38v.38h-4.2v-.38a1.21,1.21,0,0,0,1.36-1.38v-7a1.21,1.21,0,0,0-1.36-1.38V3.54h4.2v.38a1.21,1.21,0,0,0-1.36,1.38Z"/><path class="cls-2" d="M352,3.32l.3,3.48h-.38C351.4,5.08,350.52,4,349.26,4a1.33,1.33,0,0,0-1.42,1.42c0,.94.68,1.48,1.54,2.06l1.7,1.17a3.41,3.41,0,0,1,1.54,2.66,2.92,2.92,0,0,1-3,3c-1,0-1.7-.52-2.22-.52-.27,0-.41.3-.49.52h-.36l-.44-3.5h.4c.64,1.8,1.58,2.84,2.89,2.84a1.66,1.66,0,0,0,1.74-1.78A2.22,2.22,0,0,0,350,10L347.9,8.5A2.79,2.79,0,0,1,346.58,6a2.52,2.52,0,0,1,2.6-2.66c.72,0,1.52.46,2,.46a.46.46,0,0,0,.48-.46Z"/><path class="cls-1" d="M54.6,29.14l-10.21-17H47.2V3.33h-17v8.84H33l-3.9,6.48-3.9-6.48H28V3.33H11v8.84h2.81l-10.21,17H0V38H17.33V29.14H14.22l5.32-8.84,2.06,3.43h-2v8.84h19V23.73h-2l2.07-3.43L44,29.14H40.91V38H58.24V29.14Z"/></svg>