<?xml version="1.0" encoding="utf-8"?>
<!-- Generator: Adobe Illustrator 23.0.2, SVG Export Plug-In . SVG Version: 6.00 Build 0)  -->
<svg version="1.1" id="Layer_1" xmlns="http://www.w3.org/2000/svg" xmlns:xlink="http://www.w3.org/1999/xlink" x="0px" y="0px"
	 viewBox="0 0 285.66 38.09" style="enable-background:new 0 0 285.66 38.09;" xml:space="preserve">
<style type="text/css">
	.st0{stroke:#000000;stroke-width:0.2;}
	.st1{fill:#7A0019;}
	.st2{fill:#FFFFFF;stroke:#FFFFFF;stroke-width:0.2;}
	.st3{fill:#FFCD34;}
	.st4{stroke:#000000;stroke-width:0.2;stroke-miterlimit:10;}
	.st5{fill:#FFFFFF;stroke:#FFFFFF;stroke-width:0.2;stroke-miterlimit:10;}
</style>
<g>
	<g>
		<path class="st3" d="M61.8,34.84c0.18,0.07,0.34,0.17,0.47,0.3c0.13,0.13,0.24,0.27,0.31,0.43c0.1,0.2,0.15,0.42,0.15,0.65
			c0,0.26-0.07,0.51-0.2,0.74c-0.13,0.24-0.31,0.42-0.55,0.55c-0.23,0.13-0.48,0.2-0.73,0.2c-0.25,0-0.5-0.07-0.73-0.2
			c-0.23-0.13-0.42-0.31-0.55-0.55c-0.13-0.23-0.2-0.48-0.2-0.74c0-0.22,0.04-0.42,0.13-0.61c0.08-0.18,0.19-0.34,0.32-0.46
			c0.13-0.13,0.27-0.22,0.42-0.29c0.2-0.09,0.4-0.13,0.61-0.13C61.43,34.73,61.62,34.77,61.8,34.84z M62.84,35.5
			c-0.08-0.18-0.19-0.34-0.34-0.49c-0.15-0.15-0.33-0.28-0.54-0.38c-0.22-0.1-0.45-0.15-0.71-0.15c-0.27,0-0.52,0.06-0.76,0.17
			c-0.17,0.08-0.34,0.2-0.48,0.34c-0.15,0.15-0.27,0.33-0.36,0.54c-0.09,0.21-0.14,0.45-0.14,0.69c0,0.31,0.08,0.6,0.23,0.87
			c0.16,0.28,0.37,0.49,0.65,0.65c0.28,0.15,0.57,0.23,0.87,0.23c0.27,0,0.52-0.06,0.77-0.17c0.18-0.09,0.35-0.21,0.5-0.37
			c0.15-0.16,0.27-0.34,0.36-0.55c0.08-0.21,0.13-0.43,0.13-0.65C63,35.97,62.94,35.73,62.84,35.5z M61.19,36.47
			c0.11,0,0.19,0.02,0.25,0.05c0.06,0.03,0.1,0.07,0.12,0.12c0.03,0.05,0.04,0.14,0.05,0.25c0.01,0.16,0.02,0.26,0.03,0.29h0.41
			c-0.02-0.05-0.03-0.14-0.03-0.26c0-0.12-0.01-0.2-0.02-0.25c-0.02-0.08-0.04-0.14-0.08-0.19c-0.04-0.05-0.08-0.09-0.13-0.12
			c-0.05-0.03-0.12-0.05-0.21-0.07c0.1-0.01,0.17-0.03,0.21-0.05c0.08-0.04,0.14-0.1,0.19-0.17c0.05-0.08,0.07-0.16,0.07-0.26
			c0-0.1-0.02-0.19-0.07-0.26c-0.04-0.08-0.1-0.13-0.17-0.18c-0.07-0.05-0.16-0.08-0.27-0.1c-0.08-0.01-0.19-0.02-0.34-0.02h-0.69
			v1.93h0.43v-0.71H61.19z M61.42,35.58c0.07,0.02,0.12,0.05,0.15,0.1c0.04,0.05,0.06,0.1,0.06,0.17c0,0.06-0.02,0.12-0.05,0.17
			c-0.03,0.05-0.08,0.09-0.14,0.11c-0.06,0.02-0.13,0.04-0.2,0.04h-0.29v-0.62h0.29C61.29,35.55,61.35,35.56,61.42,35.58z"/>
	</g>
	<polygon class="st3" points="54.6,29.13 44.39,12.16 47.21,12.16 47.21,3.31 30.21,3.31 30.21,12.16 33.02,12.16 29.12,18.64 
		25.22,12.16 28.03,12.16 28.03,3.31 11.04,3.31 11.04,12.16 13.85,12.16 3.64,29.13 0,29.13 0,37.97 17.33,37.97 17.33,29.13 
		14.22,29.13 19.54,20.29 21.6,23.72 19.62,23.72 19.62,32.56 38.62,32.56 38.62,23.72 36.65,23.72 38.71,20.29 44.03,29.13 
		40.91,29.13 40.91,37.97 58.24,37.97 58.24,29.13 	"/>
	<g>
		<g>
			<path class="st2" d="M276.2,3.53l0.08,2.72h-0.36c-0.33-1.74-0.75-2.03-3.05-2.03v8.12c0,0.95,0.49,1.37,1.37,1.37v0.38h-4.25
				v-0.38c0.89,0,1.37-0.42,1.37-1.37V4.22c-2.29,0-2.72,0.29-3.05,2.03h-0.35l0.08-2.72H276.2z"/>
			<path class="st2" d="M262.09,3.33c-2.61,0-4.72,2.14-4.72,5.47c0,3.33,2.11,5.47,4.72,5.47c2.61,0,4.72-2.14,4.72-5.47
				C266.8,5.47,264.69,3.33,262.09,3.33z M262.09,13.65c-1.98,0-3.11-1.9-3.11-4.85c0-2.95,1.13-4.85,3.11-4.85
				c1.98,0,3.11,1.9,3.11,4.85C265.2,11.75,264.07,13.65,262.09,13.65z"/>
			<path class="st2" d="M284.44,12.79c-0.19-0.49-3.74-9.41-3.74-9.41h-0.35c0,0-3.13,8.18-3.51,9.14c-0.38,0.96-0.85,1.2-1.22,1.2
				v0.38h2.88v-0.38c-0.42,0-0.9-0.3-0.9-0.76c0-0.14,0.01-0.3,0.05-0.4c0.02-0.08,0.32-0.88,0.7-1.91h3.66
				c0.37,1.02,0.66,1.8,0.67,1.84c0.05,0.14,0.11,0.33,0.11,0.47c0,0.41-0.33,0.76-0.95,0.76v0.38h3.71v-0.38
				C285.1,13.72,284.63,13.29,284.44,12.79z M278.63,9.91c0.71-1.94,1.56-4.23,1.56-4.23s0.85,2.3,1.55,4.23H278.63z"/>
			<path class="st2" d="M246.86,11.35c-0.47,1.1-1.07,2.06-2.75,2.06c-0.35,0-1.1,0-1.67,0c-0.61,0-0.88-0.21-0.88-0.71
				c0-0.19,0-1.94,0-3.76c0.41,0,1.67,0,2.27,0c0.88,0,1.35,0.5,1.49,1.43h0.35V6.71h-0.38c-0.06,1.01-0.58,1.51-1.38,1.51
				c-0.67,0-1.98,0-2.36,0c0-1.74,0-3.36,0-3.53c0-0.39,0.25-0.47,0.58-0.47c0.33,0,1.07,0,2.03,0c1.26,0,1.7,0.52,1.97,1.7h0.36
				l-0.08-2.39h-7.6v0.39c0.88,0,1.29,0.42,1.29,1.37v7.05c0,0.95-0.4,1.37-1.29,1.37v0.38h7.8l0.68-2.74H246.86z"/>
			<path class="st2" d="M254.9,3.31l0.3,3.48h-0.38c-0.52-1.72-1.4-2.77-2.66-2.77c-0.9,0-1.43,0.61-1.43,1.43
				c0,0.93,0.69,1.48,1.54,2.06c0.85,0.57,1.42,0.96,1.7,1.15c0.79,0.55,1.54,1.54,1.54,2.66c0,1.72-1.29,2.99-2.99,2.99
				c-1.04,0-1.7-0.52-2.23-0.52c-0.29,0-0.43,0.29-0.49,0.52h-0.36L249,10.8h0.38c0.65,1.8,1.59,2.85,2.91,2.85
				c0.99,0,1.73-0.68,1.73-1.78c0-1-0.53-1.48-1.15-1.92c-0.7-0.49-1.56-1.1-2.08-1.45c-0.82-0.55-1.32-1.31-1.32-2.52
				c0-1.45,0.96-2.66,2.61-2.66c0.71,0,1.51,0.46,1.95,0.46c0.33,0,0.47-0.22,0.49-0.46H254.9z"/>
			<path class="st2" d="M233.9,3.53v0.39c0.82,0,1.31,0.63,1.31,1.59c0,0.65,0,3.68,0,5.56l-5.49-7.53h-2.39v0.39
				c0.47,0,0.85,0.22,1.04,0.47c0.02,0.03,0.13,0.18,0.3,0.41c0,1.15,0,6.14,0,7.09c0,1.21-0.41,1.84-1.37,1.84v0.38h3.38v-0.38
				c-0.83,0-1.32-0.55-1.32-1.51c0-0.78,0-4.93,0-6.49c2,2.7,6.31,8.55,6.31,8.55h0.23c0,0,0-7.44,0-8.51
				c0-1.35,0.55-1.84,1.37-1.84V3.53H233.9z"/>
			<path class="st2" d="M222.18,3.53v0.39c0.82,0,1.31,0.63,1.31,1.59c0,0.65,0,3.68,0,5.56l-5.49-7.53h-2.39v0.39
				c0.47,0,0.85,0.22,1.04,0.47c0.02,0.03,0.13,0.18,0.31,0.41c0,1.15,0,6.14,0,7.09c0,1.21-0.41,1.84-1.37,1.84v0.38h3.37v-0.38
				c-0.82,0-1.32-0.55-1.32-1.51c0-0.78,0-4.93,0-6.49c2,2.7,6.31,8.55,6.31,8.55h0.22c0,0,0-7.44,0-8.51
				c0-1.35,0.55-1.84,1.37-1.84V3.53H222.18z"/>
			<path class="st2" d="M208.02,0.48V0.1h-3.27l-4.26,11.42L196.22,0.1h-3.32v0.38c1.4,0,1.78,0.77,1.78,2.14c0,1.37,0,8.32,0,8.59
				c0,1.99-0.56,2.5-1.81,2.5v0.38h4.31v-0.38c-1.2,0-1.78-0.52-1.78-2.5c0-1.97,0-8.97,0-8.97l4.44,11.89h0.42l4.53-12.1
				c0,0,0,8.84,0,9.19c0,1.99-0.45,2.5-1.7,2.5v0.38h4.94v-0.38c-1.21,0-1.67-0.52-1.67-2.5c0-0.77,0-7.63,0-8.78
				C206.34,0.84,207.2,0.48,208.02,0.48z"/>
			<path class="st2" d="M212.05,5.29c0-0.95,0.49-1.37,1.37-1.37V3.53h-4.26v0.39c0.89,0,1.37,0.42,1.37,1.37v7.05
				c0,0.95-0.48,1.37-1.37,1.37v0.38h4.26v-0.38c-0.89,0-1.37-0.42-1.37-1.37V5.29z"/>
			<path class="st2" d="M173.09,3.34c-2.61,0-4.72,2.14-4.72,5.47c0,3.33,2.11,5.47,4.72,5.47c2.6,0,4.72-2.14,4.72-5.47
				C177.81,5.48,175.7,3.34,173.09,3.34z M173.09,13.67c-1.98,0-3.11-1.9-3.11-4.85c0-2.95,1.13-4.85,3.11-4.85
				c1.98,0,3.11,1.9,3.11,4.85C176.2,11.76,175.07,13.67,173.09,13.67z"/>
			<path class="st2" d="M186.97,3.53h-7.68v0.39c0.88,0,1.29,0.42,1.29,1.37v7.05c0,0.95-0.4,1.37-1.29,1.37v0.38h4.09v-0.38
				c-0.85,0-1.34-0.41-1.34-1.37c0-0.19,0-1.74,0-3.4c0.4,0,1.59,0,2.19,0c0.88,0,1.35,0.5,1.49,1.43h0.35V6.71h-0.38
				c-0.06,1.01-0.58,1.51-1.37,1.51c-0.67,0-1.91,0-2.28,0c0-1.71,0-3.35,0-3.53c0-0.39,0.25-0.47,0.57-0.47c0.33,0,1.15,0,2.12,0
				c1.26,0,1.7,0.52,1.98,1.7h0.35L186.97,3.53z"/>
			<path class="st2" d="M151.69,3.55l0.08,2.71h-0.36c-0.33-1.74-0.75-2.03-3.05-2.03v8.12c0,0.95,0.49,1.37,1.37,1.37v0.38h-4.25
				v-0.38c0.89,0,1.37-0.42,1.37-1.37V4.23c-2.29,0-2.71,0.29-3.05,2.03h-0.36l0.08-2.71H151.69z"/>
			<path class="st2" d="M159.84,3.93V3.55h3.24v0.38c-0.46,0-1.2,0.51-1.51,1.02c-0.34,0.56-2.61,4.33-2.61,4.33v3.07
				c0,1.03,0.38,1.37,1.48,1.37v0.38h-4.47v-0.38c1.11,0,1.48-0.35,1.48-1.37V9.45c0,0-2.5-3.98-2.8-4.48
				c-0.3-0.49-0.9-1.04-1.48-1.04V3.55h4.17v0.38c-0.58,0-0.99,0.26-0.99,0.56c0,0.2,0.1,0.43,0.17,0.55
				c0.07,0.13,2.12,3.49,2.12,3.49s2.03-3.52,2.08-3.62c0.06-0.1,0.08-0.22,0.08-0.34C160.8,4.27,160.63,3.93,159.84,3.93z"/>
			<path class="st2" d="M134.83,3.31l0.3,3.48h-0.38c-0.52-1.72-1.4-2.77-2.66-2.77c-0.9,0-1.43,0.61-1.43,1.43
				c0,0.93,0.69,1.48,1.54,2.06c0.85,0.57,1.43,0.96,1.7,1.15c0.79,0.55,1.54,1.54,1.54,2.66c0,1.72-1.29,2.99-2.99,2.99
				c-1.05,0-1.7-0.52-2.22-0.52c-0.29,0-0.42,0.29-0.49,0.52h-0.35l-0.44-3.52h0.38c0.64,1.8,1.59,2.85,2.91,2.85
				c0.99,0,1.73-0.68,1.73-1.78c0-1-0.53-1.48-1.15-1.92c-0.7-0.49-1.56-1.1-2.09-1.45c-0.82-0.55-1.31-1.31-1.31-2.52
				c0-1.45,0.95-2.66,2.6-2.66c0.72,0,1.51,0.46,1.95,0.46c0.33,0,0.46-0.22,0.49-0.46H134.83z"/>
			<path class="st2" d="M140.65,5.3c0-0.95,0.49-1.38,1.37-1.38V3.55h-4.25v0.38c0.89,0,1.37,0.42,1.37,1.38v7.05
				c0,0.95-0.49,1.37-1.37,1.37v0.38h4.25v-0.38c-0.88,0-1.37-0.42-1.37-1.37V5.3z"/>
			<path class="st2" d="M116.44,11.35c-0.47,1.1-1.07,2.06-2.74,2.06c-0.36,0-1.1,0-1.68,0c-0.61,0-0.88-0.21-0.88-0.71
				c0-0.19,0-1.94,0-3.76c0.42,0,1.67,0,2.28,0c0.88,0,1.35,0.5,1.48,1.43h0.36V6.71h-0.38c-0.06,1.01-0.58,1.51-1.37,1.51
				c-0.68,0-1.98,0-2.36,0c0-1.74,0-3.36,0-3.53c0-0.39,0.25-0.47,0.58-0.47c0.33,0,1.07,0,2.03,0c1.26,0,1.7,0.52,1.98,1.7h0.36
				L116,3.53h-7.6v0.39c0.89,0,1.29,0.42,1.29,1.37v7.05c0,0.95-0.4,1.37-1.29,1.37v0.38h7.79l0.69-2.74H116.44z"/>
			<path class="st2" d="M126.49,13.25c-0.24-0.3-2.58-3.51-3.11-4.22c1.89-0.4,2.56-1.36,2.56-2.75c0-1.64-1.23-2.74-3.48-2.74
				c-0.28,0-4.23,0-4.23,0v0.39c0.89,0,1.29,0.42,1.29,1.37v7.05c0,0.95-0.4,1.37-1.29,1.37v0.38h4.09v-0.38
				c-0.89,0-1.29-0.42-1.29-1.37v-3.1c0.28,0,0.55-0.01,0.8-0.02l3.43,4.88h2.31v-0.33C127.18,13.77,126.76,13.57,126.49,13.25z
				 M121.02,8.61V5.04c0-0.73,0.15-0.9,0.96-0.9c1.78,0,2.44,0.88,2.44,2.2c0,1.62-1.22,2.28-3.04,2.28
				C121.25,8.61,121.13,8.61,121.02,8.61z"/>
			<path class="st2" d="M94.05,5.29c0-0.95,0.48-1.37,1.37-1.37V3.53h-4.26v0.39c0.89,0,1.37,0.42,1.37,1.37v7.05
				c0,0.95-0.49,1.37-1.37,1.37v0.38h4.26v-0.38c-0.89,0-1.37-0.42-1.37-1.37V5.29z"/>
			<path class="st2" d="M101.02,3.92V3.53h-3.87v0.39c0.47,0,0.96,0.3,1.29,1.1c0.33,0.79,3.82,9.25,3.82,9.25h0.25
				c0,0,3.05-8.51,3.32-9.25c0.27-0.74,0.74-1.1,1.18-1.1V3.53h-2.99v0.39c0.66,0,1.02,0.36,1.02,0.82c0,0.14-0.04,0.29-0.08,0.41
				c-0.06,0.16-2.22,6.23-2.22,6.23s-2.55-6.13-2.63-6.32C100.03,4.92,100,4.74,100,4.59C100,4.17,100.35,3.92,101.02,3.92z"/>
			<path class="st2" d="M65.56,0.48c1.15,0,1.75,0.58,1.75,2.22c0,1.65,0,3.82,0,6.54c0,3.3,1.81,5.05,4.97,5.05
				c2.71,0,4.8-1.65,4.8-4.83c0-2.94,0-6.04,0-7.13c0-1.1,0.33-1.84,1.65-1.84V0.1h-4.17v0.38c1.18,0,1.67,0.52,1.7,1.95
				c0.02,1.43,0.11,5.16,0.11,7.38c0,2.22-1.59,3.62-3.76,3.62c-2.09,0-3.74-1.24-3.74-3.84c0-2.61,0-6.15,0-7.3
				c0-1.08,0.42-1.81,1.65-1.81V0.1h-4.97V0.48z"/>
			<path class="st2" d="M85.59,3.53v0.39c0.82,0,1.32,0.63,1.32,1.59c0,0.65,0,3.68,0,5.56l-5.49-7.53h-2.39v0.39
				c0.47,0,0.85,0.22,1.05,0.47c0.02,0.03,0.13,0.18,0.3,0.41c0,1.15,0,6.14,0,7.09c0,1.21-0.41,1.84-1.37,1.84v0.38h3.37v-0.38
				c-0.82,0-1.32-0.55-1.32-1.51c0-0.78,0-4.93,0-6.49c2,2.7,6.31,8.55,6.31,8.55h0.22c0,0,0-7.44,0-8.51
				c0-1.35,0.55-1.84,1.37-1.84V3.53H85.59z"/>
		</g>
		<g>
			<path class="st2" d="M160.17,24.15c-0.82,0-1.68,0.36-1.68,1.96v8.78c0,1.98,0.48,2.5,1.68,2.5v0.38h-4.94v-0.38
				c1.26,0,1.7-0.52,1.7-2.5v-9.2l-4.54,12.13H152l-4.44-11.9v8.98c0,1.98,0.56,2.5,1.78,2.5v0.38h-4.31v-0.38
				c1.25,0,1.82-0.52,1.82-2.5v-8.58c0-1.38-0.38-2.16-1.78-2.16v-0.38h3.32l4.28,11.43l4.26-11.43h3.26V24.15z"/>
			<path class="st2" d="M170.91,32.47c0,3.34-2.1,5.48-4.72,5.48c-2.6,0-4.71-2.14-4.71-5.48c0-3.32,2.12-5.46,4.71-5.46
				C168.81,27.01,170.91,29.15,170.91,32.47z M169.31,32.47c0-2.94-1.14-4.84-3.12-4.84s-3.1,1.9-3.1,4.84
				c0,2.96,1.12,4.86,3.1,4.86S169.31,35.43,169.31,32.47z"/>
			<path class="st2" d="M181.42,37.45v0.32h-2.3l-3.42-4.88c-0.26,0.02-0.54,0.02-0.82,0.02v3.1c0,0.96,0.4,1.38,1.3,1.38v0.38
				h-4.08v-0.38c0.88,0,1.3-0.42,1.3-1.38v-7.04c0-0.96-0.42-1.38-1.3-1.38v-0.38h4.19c2.26,0,3.5,1.1,3.5,2.74
				c0,1.38-0.68,2.34-2.56,2.76c0.52,0.7,2.86,3.92,3.1,4.22C180.62,37.25,181.04,37.45,181.42,37.45z M175.25,32.29
				c1.82,0,3.03-0.66,3.03-2.28c0-1.32-0.66-2.2-2.44-2.2c-0.82,0-0.96,0.18-0.96,0.9v3.58H175.25z"/>
			<path class="st2" d="M192.15,37.45v0.32h-2.3l-3.42-4.88c-0.26,0.02-0.54,0.02-0.82,0.02v3.1c0,0.96,0.4,1.38,1.3,1.38v0.38
				h-4.08v-0.38c0.88,0,1.3-0.42,1.3-1.38v-7.04c0-0.96-0.42-1.38-1.3-1.38v-0.38h4.2c2.26,0,3.5,1.1,3.5,2.74
				c0,1.38-0.68,2.34-2.56,2.76c0.52,0.7,2.86,3.92,3.1,4.22C191.36,37.25,191.78,37.45,192.15,37.45z M185.98,32.29
				c1.82,0,3.04-0.66,3.04-2.28c0-1.32-0.66-2.2-2.44-2.2c-0.82,0-0.96,0.18-0.96,0.9v3.58H185.98z"/>
			<path class="st2" d="M196.81,36.01c0,0.96,0.48,1.38,1.36,1.38v0.38h-4.2v-0.38c0.88,0,1.36-0.42,1.36-1.38v-7.04
				c0-0.96-0.48-1.38-1.36-1.38v-0.38h4.2v0.38c-0.88,0-1.36,0.42-1.36,1.38V36.01z"/>
			<path class="st2" d="M205.49,26.99l0.3,3.48h-0.38c-0.54-1.72-1.42-2.76-2.68-2.76c-0.9,0-1.42,0.6-1.42,1.42
				c0,0.94,0.68,1.48,1.54,2.06l1.7,1.16c0.78,0.54,1.54,1.52,1.54,2.66c0,1.72-1.3,2.98-3,2.98c-1.04,0-1.7-0.52-2.22-0.52
				c-0.28,0-0.42,0.3-0.5,0.52h-0.36l-0.44-3.5h0.4c0.64,1.8,1.58,2.84,2.9,2.84c1,0,1.74-0.66,1.74-1.78c0-1-0.54-1.48-1.16-1.92
				l-2.08-1.46c-0.82-0.56-1.32-1.3-1.32-2.52c0-1.46,0.96-2.66,2.6-2.66c0.72,0,1.52,0.46,1.96,0.46c0.32,0,0.46-0.22,0.48-0.46
				H205.49z"/>
		</g>
	</g>
</g>
</svg>
