<svg id="Layer_1" data-name="Layer 1" xmlns="http://www.w3.org/2000/svg" viewBox="0 0 387.88 37.98"><defs><style>.cls-1{fill:#7a0019;}.cls-2{fill:#231f20;stroke:#231f20;stroke-width:0.2px;}</style></defs><title>web</title><path class="cls-1" d="M145,25h3.92c3.92,0,6.72,2.61,6.72,6.38s-2.78,6.38-6.72,6.38H145Zm3.79,10.45c2.83,0,4.13-1.69,4.13-4.07s-1.3-4.07-4.13-4.07h-1.17v8.14Z"/><path class="cls-1" d="M158,29.78h2.54l0,1.44a2.4,2.4,0,0,1,2.34-1.61,2.54,2.54,0,0,1,1.24.32l-.81,2.31a2,2,0,0,0-1-.25c-1.15,0-1.76.53-1.76,2.24v3.54H158Z"/><path class="cls-1" d="M166.07,26.85a1.59,1.59,0,0,1,1.62-1.58,1.59,1.59,0,1,1-1.62,1.58Zm.34,2.93H169v8h-2.54Z"/><path class="cls-1" d="M171.14,29.78h2.8l1.13,2.38a12.86,12.86,0,0,1,.65,2.12,13.68,13.68,0,0,1,.62-2.12l1.09-2.38H180l-4.28,8.16h-.24Z"/><path class="cls-1" d="M186,35.84a3.48,3.48,0,0,0,2-.64l1.45,1.56a4.76,4.76,0,0,1-3.42,1.18c-2.85,0-4.69-1.72-4.69-4.18a4.17,4.17,0,0,1,4.41-4.15c2.87,0,4.43,2.14,4.24,4.93H184A1.88,1.88,0,0,0,186,35.84Zm1.45-2.76a1.52,1.52,0,0,0-1.67-1.41,1.71,1.71,0,0,0-1.88,1.41Z"/><path class="cls-1" d="M192.68,29.78h2.53l-.06,1.31a2.74,2.74,0,0,1,2.54-1.48c1.74,0,3,1.27,3,3.55v4.61h-2.53V33.32c0-.9-.43-1.4-1.33-1.4a1.45,1.45,0,0,0-1.62,1.57v4.28h-2.53Z"/><path class="cls-1" d="M209.42,34.77V31.88h-1.18v-2.1h1.18V25.61h2.52v4.17h2v2.1h-2v3c0,.8.26,1,.65,1a1.51,1.51,0,0,0,.89-.34l1,1.77a3.4,3.4,0,0,1-2.24.73C210.58,38,209.42,37.17,209.42,34.77Z"/><path class="cls-1" d="M216.29,33.79a4.41,4.41,0,1,1,4.41,4.15A4.2,4.2,0,0,1,216.29,33.79Zm6.22,0a1.82,1.82,0,1,0-3.63,0,1.82,1.82,0,1,0,3.63,0Z"/><path class="cls-1" d="M233.17,25h3.92c3.93,0,6.72,2.61,6.72,6.38s-2.78,6.38-6.72,6.38h-3.92ZM237,35.46c2.84,0,4.13-1.69,4.13-4.07s-1.29-4.07-4.13-4.07H235.8v8.14Z"/><path class="cls-1" d="M246.39,26.85A1.58,1.58,0,0,1,248,25.27a1.59,1.59,0,1,1-1.61,1.58Zm.33,2.93h2.54v8h-2.54Z"/><path class="cls-1" d="M251.7,36.42l1.48-1.31a2.9,2.9,0,0,0,2,.84c.83,0,1.09-.15,1.09-.49s-.51-.43-1.81-.77a2.59,2.59,0,0,1-2.3-2.55c0-1.8,1.39-2.53,3.1-2.53a3.9,3.9,0,0,1,2.91,1.1l-1.36,1.45a2.45,2.45,0,0,0-1.54-.6c-.58,0-.86.15-.86.47s.51.51,1.6.75,2.62.81,2.62,2.5c0,1.46-.77,2.66-3.28,2.66A4.41,4.41,0,0,1,251.7,36.42Z"/><path class="cls-1" d="M260.84,33.76a4.13,4.13,0,0,1,4.37-4.15,3.89,3.89,0,0,1,3.36,1.59l-1.8,1.47a1.88,1.88,0,0,0-1.56-.85,1.74,1.74,0,0,0-1.78,1.94,1.77,1.77,0,0,0,1.78,2,2.14,2.14,0,0,0,1.62-.75l1.71,1.5a4.07,4.07,0,0,1-3.33,1.44A4.14,4.14,0,0,1,260.84,33.76Z"/><path class="cls-1" d="M270.54,33.79A4.41,4.41,0,1,1,275,37.94,4.2,4.2,0,0,1,270.54,33.79Zm6.22,0a1.82,1.82,0,1,0-3.62,0,1.82,1.82,0,1,0,3.62,0Z"/><path class="cls-1" d="M280.7,29.78h2.8l1.13,2.38a12.86,12.86,0,0,1,.65,2.12,13.68,13.68,0,0,1,.62-2.12L287,29.78h2.57l-4.28,8.16H285Z"/><path class="cls-1" d="M295.57,35.84a3.48,3.48,0,0,0,2-.64L299,36.76a4.72,4.72,0,0,1-3.41,1.18c-2.85,0-4.69-1.72-4.69-4.18a4.17,4.17,0,0,1,4.41-4.15c2.87,0,4.43,2.14,4.24,4.93h-6.06A1.88,1.88,0,0,0,295.57,35.84ZM297,33.08a1.52,1.52,0,0,0-1.67-1.41,1.71,1.71,0,0,0-1.88,1.41Z"/><path class="cls-1" d="M302.24,29.78h2.53l0,1.44a2.41,2.41,0,0,1,2.35-1.61,2.54,2.54,0,0,1,1.24.32l-.81,2.31a2.09,2.09,0,0,0-1-.25c-1.15,0-1.77.53-1.77,2.24v3.54h-2.53Z"/><path class="cls-1" d="M313.36,28.45a2.09,2.09,0,0,1,.72.47,2.3,2.3,0,0,1,.71,1.66,2.32,2.32,0,0,1-.3,1.15,2.2,2.2,0,0,1-.85.86,2.3,2.3,0,0,1-1.13.3,2.28,2.28,0,0,1-1.13-.3,2.13,2.13,0,0,1-.85-.86,2.32,2.32,0,0,1-.3-1.15,2.18,2.18,0,0,1,.19-.93,2.37,2.37,0,0,1,.5-.72,2,2,0,0,1,.65-.44,2.22,2.22,0,0,1,.94-.21A2.3,2.3,0,0,1,313.36,28.45Zm1.61,1a2.55,2.55,0,0,0-.52-.77,3.05,3.05,0,0,0-.84-.58,2.49,2.49,0,0,0-1.1-.23,2.79,2.79,0,0,0-1.18.26,2.74,2.74,0,0,0-.75.54,2.81,2.81,0,0,0-.56.83,2.82,2.82,0,0,0,.14,2.43,2.57,2.57,0,0,0,1,1,2.73,2.73,0,0,0,1.35.36,2.65,2.65,0,0,0,1.18-.27,2.7,2.7,0,0,0,.78-.57,2.49,2.49,0,0,0,.55-.86,2.7,2.7,0,0,0,.19-1A2.75,2.75,0,0,0,315,29.46ZM312.42,31a.82.82,0,0,1,.39.07.44.44,0,0,1,.19.19,1.08,1.08,0,0,1,.07.39,2.33,2.33,0,0,0,.06.45h.63a1.65,1.65,0,0,1,0-.39q0-.27,0-.39a1.17,1.17,0,0,0-.12-.3.72.72,0,0,0-.21-.18,1,1,0,0,0-.33-.12,1,1,0,0,0,.33-.07.69.69,0,0,0,.29-.27.81.81,0,0,0,0-.8.81.81,0,0,0-.27-.28,1,1,0,0,0-.41-.16,3.57,3.57,0,0,0-.54,0h-1.07v3H312V31Zm.35-1.38a.49.49,0,0,1,.24.15.42.42,0,0,1,.09.27.48.48,0,0,1-.3.43.87.87,0,0,1-.32.06H312v-1h.44A1,1,0,0,1,312.77,29.59Z"/><path class="cls-2" d="M301.44.81c.38,0,.54-.34.6-.65h.38l.3,4.68h-.38c-.62-2.79-2.26-4-4.28-4-3.55,0-4.72,3.21-4.72,6.53s1.56,6.14,4.74,6.14a5.56,5.56,0,0,0,4.46-2.29l.38.31a6.33,6.33,0,0,1-5.34,2.83c-3.44,0-6-2.63-6-7,0-4.52,2.82-7.22,6.24-7.22A19.18,19.18,0,0,1,301.44.81Z"/><path class="cls-2" d="M314.17,13.79v.32h-2.3l-3.42-4.82c-.26,0-.54,0-.82,0v3.06c0,1,.4,1.36,1.3,1.36v.38h-4.08v-.38c.88,0,1.3-.41,1.3-1.36V5.43c0-.95-.42-1.36-1.3-1.36V3.69h4.2c2.26,0,3.5,1.09,3.5,2.7,0,1.36-.68,2.31-2.56,2.73.52.69,2.86,3.86,3.1,4.16A1.48,1.48,0,0,0,314.17,13.79ZM308,8.7c1.82,0,3-.65,3-2.25,0-1.3-.66-2.17-2.44-2.17-.82,0-1,.18-1,.89V8.7Z"/><path class="cls-2" d="M324.63,8.88c0,3.29-2.1,5.41-4.72,5.41s-4.72-2.12-4.72-5.41,2.12-5.39,4.72-5.39S324.63,5.61,324.63,8.88Zm-1.6,0c0-2.9-1.14-4.77-3.12-4.77s-3.1,1.87-3.1,4.77,1.12,4.79,3.1,4.79S323,11.8,323,8.88Z"/><path class="cls-2" d="M336.07,8.88c0,3.29-2.1,5.41-4.72,5.41s-4.72-2.12-4.72-5.41,2.12-5.39,4.72-5.39S336.07,5.61,336.07,8.88Zm-1.6,0c0-2.9-1.14-4.77-3.12-4.77s-3.1,1.87-3.1,4.77,1.12,4.79,3.1,4.79S334.47,11.8,334.47,8.88Z"/><path class="cls-2" d="M340.63,8.92l-.12.12v3.33a1.2,1.2,0,0,0,1.36,1.36v.38h-4.2v-.38A1.2,1.2,0,0,0,339,12.37V5.43a1.2,1.2,0,0,0-1.36-1.36V3.69h4.2v.38a1.2,1.2,0,0,0-1.36,1.36v3l3.08-2.84c.54-.49.86-.84.86-1.16s-.26-.39-.82-.39V3.69h3.84v.38a4.38,4.38,0,0,0-2.78,1.42l-2.9,2.64,4.06,4.36c.9,1,1.58,1.28,2.22,1.24v.38h-4.56v-.38c.7,0,.9-.08.9-.37s-.62-1-1.66-2.15Z"/><path class="cls-2" d="M355.29,3.47l.3,3.44h-.38c-.54-1.7-1.42-2.73-2.68-2.73a1.33,1.33,0,0,0-1.42,1.41c0,.92.68,1.46,1.54,2l1.7,1.14a3.35,3.35,0,0,1,1.54,2.63,2.9,2.9,0,0,1-3,2.94c-1,0-1.7-.52-2.22-.52-.28,0-.42.3-.5.52h-.36l-.44-3.46h.4c.64,1.78,1.58,2.8,2.9,2.8a1.65,1.65,0,0,0,1.74-1.75,2.17,2.17,0,0,0-1.16-1.9l-2.08-1.43a2.77,2.77,0,0,1-1.32-2.49,2.5,2.5,0,0,1,2.6-2.63c.72,0,1.52.46,2,.46a.46.46,0,0,0,.48-.46Z"/><path class="cls-2" d="M365.49,3.69l.08,2.68h-.36c-.32-1.71-.76-2-3-2v8a1.2,1.2,0,0,0,1.36,1.36v.38h-4.2v-.38a1.2,1.2,0,0,0,1.36-1.36v-8c-2.28,0-2.72.3-3,2h-.36l.08-2.68Z"/><path class="cls-2" d="M376.22,8.88c0,3.29-2.11,5.41-4.73,5.41s-4.71-2.12-4.71-5.41,2.12-5.39,4.71-5.39S376.22,5.61,376.22,8.88Zm-1.6,0c0-2.9-1.15-4.77-3.13-4.77S368.4,6,368.4,8.88s1.11,4.79,3.09,4.79S374.62,11.8,374.62,8.88Z"/><path class="cls-2" d="M387.78,3.69v.38c-.82,0-1.38.49-1.38,1.81v8.41h-.2l-6.32-8.45v6.41c0,.95.5,1.48,1.32,1.48v.38h-3.38v-.38c1,0,1.38-.61,1.38-1.81v-7l-.32-.41a1.31,1.31,0,0,0-1-.45V3.69h2.4l5.48,7.44V5.65c0-1-.5-1.58-1.32-1.58V3.69Z"/><path class="cls-2" d="M276.19,3.54l.08,2.71h-.36c-.33-1.74-.75-2-3-2v8.13a1.21,1.21,0,0,0,1.37,1.37v.38H270v-.38a1.21,1.21,0,0,0,1.37-1.37V4.22c-2.29,0-2.72.29-3.05,2H268L268,3.54Z"/><path class="cls-2" d="M262.08,3.33c-2.61,0-4.72,2.15-4.72,5.48s2.11,5.47,4.72,5.47,4.72-2.14,4.72-5.47S264.69,3.33,262.08,3.33Zm0,10.33c-2,0-3.11-1.9-3.11-4.85S260.1,4,262.08,4s3.11,1.9,3.11,4.85S264.06,13.66,262.08,13.66Z"/><path class="cls-2" d="M284.44,12.8c-.2-.49-3.74-9.41-3.74-9.41h-.35s-3.13,8.18-3.52,9.14-.85,1.19-1.22,1.19v.38h2.88v-.38a.86.86,0,0,1-.9-.75,1.22,1.22,0,0,1,.06-.41c0-.08.32-.88.69-1.9H282c.37,1,.66,1.8.67,1.84a1.53,1.53,0,0,1,.11.47c0,.4-.33.75-1,.75v.38h3.71v-.38A1.37,1.37,0,0,1,284.44,12.8Zm-5.82-2.88c.72-1.94,1.56-4.23,1.56-4.23S281,8,281.73,9.92Z"/><path class="cls-2" d="M246.85,11.36a2.74,2.74,0,0,1-2.75,2.06h-1.67c-.61,0-.88-.21-.88-.72V8.94h2.28c.87,0,1.34.5,1.48,1.43h.36V6.72h-.38c-.06,1-.59,1.51-1.38,1.51h-2.36V4.69c0-.39.25-.47.58-.47h2c1.26,0,1.7.52,2,1.7h.36l-.08-2.38h-7.6v.38c.88,0,1.29.42,1.29,1.37v7.06c0,1-.41,1.37-1.29,1.37v.38h7.8l.68-2.74Z"/><path class="cls-2" d="M254.89,3.32l.3,3.48h-.38c-.52-1.71-1.4-2.77-2.66-2.77a1.34,1.34,0,0,0-1.43,1.43c0,.93.68,1.48,1.54,2.06L254,8.67a3.41,3.41,0,0,1,1.54,2.66,2.93,2.93,0,0,1-3,3c-1,0-1.7-.52-2.22-.52-.29,0-.43.29-.49.52h-.36L249,10.81h.38c.65,1.8,1.6,2.85,2.91,2.85A1.66,1.66,0,0,0,254,11.88,2.19,2.19,0,0,0,252.86,10L250.78,8.5A2.79,2.79,0,0,1,249.45,6a2.52,2.52,0,0,1,2.61-2.66c.71,0,1.51.46,1.95.46a.48.48,0,0,0,.5-.46Z"/><path class="cls-2" d="M233.9,3.54v.38c.82,0,1.31.63,1.31,1.59v5.56l-5.49-7.53h-2.39v.38a1.34,1.34,0,0,1,1,.47l.3.4v7.09c0,1.21-.41,1.84-1.37,1.84v.38h3.37v-.38c-.83,0-1.32-.55-1.32-1.51V5.72l6.31,8.55h.23V5.76c0-1.35.55-1.84,1.37-1.84V3.54Z"/><path class="cls-2" d="M222.18,3.54v.38c.82,0,1.31.63,1.31,1.59v5.56L218,3.54h-2.39v.38a1.34,1.34,0,0,1,1,.47l.3.4v7.09c0,1.21-.41,1.84-1.37,1.84v.38H219v-.38c-.82,0-1.32-.55-1.32-1.51V5.72L224,14.27h.22V5.76c0-1.35.55-1.84,1.37-1.84V3.54Z"/><path class="cls-2" d="M208,.49V.11h-3.26l-4.26,11.41L196.21.11h-3.32V.49c1.4,0,1.78.77,1.78,2.14v8.59c0,2-.55,2.5-1.81,2.5v.38h4.31v-.38c-1.2,0-1.78-.52-1.78-2.5v-9l4.44,11.89h.42L204.78,2v9.19c0,2-.45,2.5-1.71,2.5v.38H208v-.38c-1.21,0-1.67-.52-1.67-2.5V2.44C206.34.85,207.19.49,208,.49Z"/><path class="cls-2" d="M212,5.29a1.21,1.21,0,0,1,1.38-1.37V3.54h-4.26v.38a1.21,1.21,0,0,1,1.38,1.37v7.06a1.21,1.21,0,0,1-1.38,1.37v.38h4.26v-.38A1.21,1.21,0,0,1,212,12.35Z"/><path class="cls-2" d="M173.09,3.35c-2.61,0-4.72,2.14-4.72,5.47s2.11,5.47,4.72,5.47,4.71-2.14,4.71-5.47S175.69,3.35,173.09,3.35Zm0,10.32c-2,0-3.11-1.9-3.11-4.85S171.11,4,173.09,4s3.11,1.9,3.11,4.85S175.06,13.67,173.09,13.67Z"/><path class="cls-2" d="M187,3.54h-7.68v.38c.88,0,1.28.42,1.28,1.37v7.06c0,1-.4,1.37-1.28,1.37v.38h4.08v-.38A1.2,1.2,0,0,1,182,12.35V8.94h2.2c.87,0,1.34.5,1.48,1.43h.35V6.72h-.38c0,1-.58,1.51-1.37,1.51H182V4.69c0-.39.25-.47.58-.47h2.11c1.26,0,1.7.52,2,1.7H187Z"/><path class="cls-2" d="M151.68,3.55l.08,2.72h-.36c-.32-1.75-.75-2-3-2v8.12a1.21,1.21,0,0,0,1.37,1.37v.39h-4.26v-.39a1.21,1.21,0,0,0,1.38-1.37V4.24c-2.29,0-2.72.28-3,2h-.36l.09-2.72Z"/><path class="cls-2" d="M159.83,3.93V3.55h3.24v.38a2.25,2.25,0,0,0-1.51,1c-.35.56-2.61,4.34-2.61,4.34v3.07c0,1,.38,1.37,1.48,1.37v.39H156v-.39c1.11,0,1.48-.34,1.48-1.37V9.45L154.64,5a2.06,2.06,0,0,0-1.48-1.05V3.55h4.17v.38c-.58,0-1,.27-1,.56a1.23,1.23,0,0,0,.17.55c.07.13,2.11,3.49,2.11,3.49l2.09-3.62a.77.77,0,0,0,.08-.34C160.79,4.28,160.63,3.93,159.83,3.93Z"/><path class="cls-2" d="M134.82,3.32l.31,3.48h-.39c-.52-1.71-1.4-2.77-2.66-2.77a1.35,1.35,0,0,0-1.43,1.43c0,.93.69,1.48,1.54,2.06l1.7,1.15a3.41,3.41,0,0,1,1.54,2.66,2.92,2.92,0,0,1-3,3c-1.05,0-1.7-.52-2.23-.52-.28,0-.42.29-.49.52h-.35l-.44-3.51h.38c.64,1.8,1.59,2.85,2.91,2.85A1.67,1.67,0,0,0,134,11.88,2.19,2.19,0,0,0,132.8,10c-.7-.5-1.57-1.1-2.09-1.46A2.8,2.8,0,0,1,129.39,6,2.52,2.52,0,0,1,132,3.32c.71,0,1.51.46,1.95.46a.47.47,0,0,0,.49-.46Z"/><path class="cls-2" d="M140.64,5.31A1.22,1.22,0,0,1,142,3.93V3.55h-4.26v.38a1.22,1.22,0,0,1,1.38,1.38v7.05a1.21,1.21,0,0,1-1.38,1.37v.39H142v-.39a1.21,1.21,0,0,1-1.38-1.37Z"/><path class="cls-2" d="M116.44,11.36a2.74,2.74,0,0,1-2.75,2.06H112c-.61,0-.88-.21-.88-.72V8.94h2.28c.88,0,1.34.5,1.48,1.43h.36V6.72h-.39c-.06,1-.57,1.51-1.37,1.51h-2.36V4.69c0-.39.25-.47.58-.47h2c1.26,0,1.7.52,2,1.7h.36L116,3.54h-7.6v.38c.88,0,1.29.42,1.29,1.37v7.06c0,1-.41,1.37-1.29,1.37v.38h7.79l.69-2.74Z"/><path class="cls-2" d="M126.48,13.25c-.24-.29-2.58-3.51-3.11-4.22,1.89-.4,2.56-1.36,2.56-2.75,0-1.64-1.23-2.74-3.48-2.74h-4.23v.38c.89,0,1.29.42,1.29,1.37v7.06c0,1-.4,1.37-1.29,1.37v.38h4.09v-.38c-.89,0-1.29-.42-1.29-1.37V9.24l.8,0,3.43,4.88h2.3v-.32A1.46,1.46,0,0,1,126.48,13.25ZM121,8.61V5c0-.73.15-.9,1-.9,1.78,0,2.44.88,2.44,2.19,0,1.63-1.22,2.28-3,2.28Z"/><path class="cls-2" d="M94,5.29a1.21,1.21,0,0,1,1.37-1.37V3.54H91.16v.38a1.21,1.21,0,0,1,1.37,1.37v7.06a1.21,1.21,0,0,1-1.37,1.37v.38h4.25v-.38A1.21,1.21,0,0,1,94,12.35Z"/><path class="cls-2" d="M101,3.92V3.54H97.14v.38c.47,0,1,.3,1.29,1.1l3.82,9.25h.24s3.05-8.51,3.33-9.25.73-1.1,1.17-1.1V3.54h-3v.38c.66,0,1,.36,1,.82a1.49,1.49,0,0,1-.08.42l-2.23,6.23-2.63-6.32a1.27,1.27,0,0,1-.08-.48C100,4.17,100.35,3.92,101,3.92Z"/><path class="cls-2" d="M65.55.49c1.15,0,1.75.58,1.75,2.22V9.25c0,3.3,1.82,5.05,5,5.05a4.49,4.49,0,0,0,4.8-4.84V2.33c0-1.1.33-1.84,1.64-1.84V.11H74.56V.49c1.17,0,1.67.52,1.7,2s.11,5.16.11,7.38a3.75,3.75,0,0,1-7.5-.22V2.3c0-1.08.42-1.81,1.65-1.81V.11h-5Z"/><path class="cls-2" d="M85.59,3.54v.38c.82,0,1.31.63,1.31,1.59v5.56L81.41,3.54H79v.38a1.33,1.33,0,0,1,1,.47l.3.4v7.09c0,1.21-.41,1.84-1.37,1.84v.38h3.37v-.38c-.82,0-1.31-.55-1.31-1.51V5.72l6.31,8.55h.22V5.76c0-1.35.55-1.84,1.37-1.84V3.54Z"/><path class="cls-1" d="M54.6,29.13l-10.21-17H47.2V3.32h-17v8.84H33l-3.9,6.49-3.9-6.49H28V3.32H11v8.84h2.81l-10.21,17H0V38H17.33V29.13H14.22l5.32-8.84,2.06,3.43h-2v8.84h19V23.72h-2l2.07-3.43L44,29.13H40.91V38H58.24V29.13Z"/></svg>