<svg id="Layer_1" data-name="Layer 1" xmlns="http://www.w3.org/2000/svg" viewBox="0 0 386.59 37.98"><defs><style>.cls-1{fill:#fff;stroke:#fff;stroke-width:0.2px;}.cls-2{fill:#ffcd34;}</style></defs><title>web</title><path class="cls-1" d="M294.94,11.2c0,2,.42,2.52,1.85,2.52v.38h-5.25v-.38c1.42,0,1.84-.52,1.84-2.52V3c0-2-.42-2.52-1.84-2.52V.1h5.13c2.52,0,5,.78,5,3.6,0,2.58-2.5,3.34-3.72,3.6l4.12,5.48a2.2,2.2,0,0,0,1.74.94v.38H301L296.2,7.52s-.68,0-1.26,0Zm0-4.34c2,0,5-.34,5-3.16,0-2.28-1.78-2.9-3.78-2.9-.88,0-1.25.14-1.25.72Z"/><path class="cls-1" d="M313.68,8.8c0,3.34-2.1,5.48-4.73,5.48s-4.72-2.14-4.72-5.48,2.12-5.46,4.72-5.46S313.68,5.48,313.68,8.8Zm-1.6,0C312.08,5.86,310.94,4,309,4s-3.1,1.9-3.1,4.84,1.12,4.86,3.1,4.86S312.08,11.76,312.08,8.8Z"/><path class="cls-1" d="M323.12,3.88c.3,0,.43-.26.46-.5H324l.21,3.46h-.38C323.36,4.9,322.24,4,320.74,4c-2.6,0-3.44,2.5-3.44,4.88,0,2.58,1.12,4.64,3.44,4.64a4,4,0,0,0,3.28-1.9l.34.26a4.73,4.73,0,0,1-4,2.38c-2.7,0-4.66-2.08-4.66-5.38s2.16-5.56,4.84-5.56A12.09,12.09,0,0,1,323.12,3.88Z"/><path class="cls-1" d="M335.53,12.34a1.21,1.21,0,0,0,1.36,1.38v.38h-4.2v-.38a1.21,1.21,0,0,0,1.36-1.38V9.1h-5v3.24a1.21,1.21,0,0,0,1.36,1.38v.38h-4.2v-.38a1.21,1.21,0,0,0,1.36-1.38v-7a1.21,1.21,0,0,0-1.36-1.38V3.54h4.2v.38A1.21,1.21,0,0,0,329,5.3V8.42h5V5.3a1.21,1.21,0,0,0-1.36-1.38V3.54h4.2v.38a1.21,1.21,0,0,0-1.36,1.38Z"/><path class="cls-1" d="M347.42,11.36l-.68,2.74H338.9v-.38c.9,0,1.3-.42,1.3-1.38v-7c0-1-.4-1.38-1.3-1.38V3.54h7.64l.1,2.38h-.36c-.28-1.18-.72-1.7-2-1.7h-2c-.32,0-.58.08-.58.48V8.26H344c.8,0,1.32-.5,1.38-1.52h.38v3.64h-.34c-.14-.94-.62-1.44-1.5-1.44h-2.28V12.7c0,.5.28.72.88.72h1.68A2.72,2.72,0,0,0,347,11.36Z"/><path class="cls-1" d="M355.14,3.32l.31,3.48h-.39C354.53,5.08,353.65,4,352.38,4A1.33,1.33,0,0,0,351,5.46c0,.94.68,1.48,1.54,2.06l1.7,1.16a3.39,3.39,0,0,1,1.55,2.66,2.92,2.92,0,0,1-3,3c-1,0-1.7-.52-2.22-.52-.28,0-.42.3-.5.52h-.36l-.44-3.5h.4c.64,1.8,1.58,2.84,2.9,2.84a1.67,1.67,0,0,0,1.75-1.78A2.18,2.18,0,0,0,353.1,10L351,8.5A2.8,2.8,0,0,1,349.7,6a2.52,2.52,0,0,1,2.6-2.66c.72,0,1.53.46,2,.46a.46.46,0,0,0,.48-.46Z"/><path class="cls-1" d="M365.35,3.54l.08,2.72h-.36c-.32-1.74-.76-2-3-2v8.12a1.21,1.21,0,0,0,1.36,1.38v.38h-4.2v-.38a1.21,1.21,0,0,0,1.36-1.38V4.22c-2.28,0-2.72.3-3,2h-.36l.08-2.72Z"/><path class="cls-1" d="M375.56,11.36l-.68,2.74H367v-.38c.9,0,1.3-.42,1.3-1.38v-7c0-1-.4-1.38-1.3-1.38V3.54h7.64l.1,2.38h-.36c-.28-1.18-.72-1.7-2-1.7h-2c-.32,0-.58.08-.58.48V8.26h2.36c.8,0,1.32-.5,1.38-1.52h.38v3.64h-.34c-.14-.94-.62-1.44-1.5-1.44h-2.28V12.7c0,.5.28.72.88.72h1.68a2.72,2.72,0,0,0,2.74-2.06Z"/><path class="cls-1" d="M386.49,13.78v.32h-2.3l-3.43-4.88c-.26,0-.54,0-.81,0v3.1c0,1,.39,1.38,1.29,1.38v.38h-4.08v-.38c.88,0,1.3-.42,1.3-1.38v-7c0-1-.42-1.38-1.3-1.38V3.54h4.21c2.26,0,3.5,1.1,3.5,2.74,0,1.38-.68,2.34-2.56,2.76.52.7,2.86,3.92,3.1,4.22A1.5,1.5,0,0,0,386.49,13.78ZM380.3,8.62c1.82,0,3-.66,3-2.28,0-1.32-.65-2.2-2.43-2.2-.83,0-1,.18-1,.9V8.62Z"/><path class="cls-1" d="M276.19,3.53l.08,2.72h-.36c-.33-1.74-.75-2-3-2v8.12a1.21,1.21,0,0,0,1.37,1.38v.38H270v-.38a1.21,1.21,0,0,0,1.37-1.38V4.22c-2.29,0-2.72.29-3.05,2H268L268,3.53Z"/><path class="cls-1" d="M262.08,3.33c-2.61,0-4.72,2.14-4.72,5.47s2.11,5.47,4.72,5.47,4.72-2.13,4.72-5.47S264.69,3.33,262.08,3.33Zm0,10.33c-2,0-3.11-1.9-3.11-4.86S260.1,4,262.08,4s3.11,1.9,3.11,4.85S264.06,13.66,262.08,13.66Z"/><path class="cls-1" d="M284.44,12.8,280.7,3.39h-.35s-3.13,8.17-3.52,9.13-.85,1.2-1.22,1.2v.38h2.88v-.38a.86.86,0,0,1-.9-.76,1.2,1.2,0,0,1,.06-.4c0-.08.32-.88.69-1.9H282c.37,1,.66,1.79.67,1.84a1.54,1.54,0,0,1,.11.46c0,.41-.33.76-1,.76v.38h3.71v-.38A1.37,1.37,0,0,1,284.44,12.8Zm-5.82-2.88c.72-1.94,1.56-4.23,1.56-4.23S281,8,281.73,9.92Z"/><path class="cls-1" d="M246.85,11.36a2.75,2.75,0,0,1-2.75,2.05h-1.67c-.61,0-.88-.21-.88-.71V8.94h2.28c.87,0,1.34.5,1.48,1.43h.36V6.72h-.38c-.06,1-.59,1.5-1.38,1.5h-2.36V4.69c0-.39.25-.47.58-.47h2c1.26,0,1.7.52,2,1.7h.36l-.08-2.39h-7.6v.39c.88,0,1.29.42,1.29,1.37v7.05c0,1-.41,1.38-1.29,1.38v.38h7.8l.68-2.74Z"/><path class="cls-1" d="M254.89,3.32l.3,3.48h-.38c-.52-1.72-1.4-2.77-2.66-2.77a1.34,1.34,0,0,0-1.43,1.43c0,.93.68,1.48,1.54,2.05L254,8.67a3.41,3.41,0,0,1,1.54,2.66,2.93,2.93,0,0,1-3,3c-1,0-1.7-.52-2.22-.52-.29,0-.43.29-.49.52h-.36L249,10.81h.38c.65,1.8,1.6,2.85,2.91,2.85A1.67,1.67,0,0,0,254,11.88,2.17,2.17,0,0,0,252.86,10L250.78,8.5A2.79,2.79,0,0,1,249.45,6a2.52,2.52,0,0,1,2.61-2.66c.71,0,1.51.46,1.95.46a.48.48,0,0,0,.5-.46Z"/><path class="cls-1" d="M233.9,3.53v.39c.82,0,1.31.63,1.31,1.59v5.56l-5.49-7.54h-2.39v.39a1.34,1.34,0,0,1,1,.47l.3.4v7.09c0,1.2-.41,1.84-1.37,1.84v.38h3.37v-.38c-.83,0-1.32-.55-1.32-1.51V5.72l6.31,8.55h.23V5.76c0-1.35.55-1.84,1.37-1.84V3.53Z"/><path class="cls-1" d="M222.18,3.53v.39c.82,0,1.31.63,1.31,1.59v5.56L218,3.53h-2.39v.39a1.34,1.34,0,0,1,1,.47l.3.4v7.09c0,1.2-.41,1.84-1.37,1.84v.38H219v-.38c-.82,0-1.32-.55-1.32-1.51V5.72L224,14.27h.22V5.76c0-1.35.55-1.84,1.37-1.84V3.53Z"/><path class="cls-1" d="M208,.49V.1h-3.26l-4.26,11.42L196.21.1h-3.32V.49c1.4,0,1.78.76,1.78,2.14v8.59c0,2-.55,2.5-1.81,2.5v.38h4.31v-.38c-1.2,0-1.78-.52-1.78-2.5v-9l4.44,11.89h.42L204.78,2v9.19c0,2-.45,2.5-1.71,2.5v.38H208v-.38c-1.21,0-1.67-.52-1.67-2.5V2.44C206.34.84,207.19.49,208,.49Z"/><path class="cls-1" d="M212,5.29a1.21,1.21,0,0,1,1.38-1.37V3.53h-4.26v.39a1.21,1.21,0,0,1,1.38,1.37v7.05a1.22,1.22,0,0,1-1.38,1.38v.38h4.26v-.38A1.22,1.22,0,0,1,212,12.34Z"/><path class="cls-1" d="M173.09,3.35c-2.61,0-4.72,2.14-4.72,5.47s2.11,5.47,4.72,5.47,4.71-2.14,4.71-5.47S175.69,3.35,173.09,3.35Zm0,10.32c-2,0-3.11-1.9-3.11-4.85S171.11,4,173.09,4s3.11,1.89,3.11,4.85S175.06,13.67,173.09,13.67Z"/><path class="cls-1" d="M187,3.53h-7.68v.39c.88,0,1.28.42,1.28,1.37v7.05c0,1-.4,1.38-1.28,1.38v.38h4.08v-.38A1.2,1.2,0,0,1,182,12.34V8.94h2.2c.87,0,1.34.5,1.48,1.43h.35V6.72h-.38c0,1-.58,1.5-1.37,1.5H182V4.69c0-.39.25-.47.58-.47h2.11c1.26,0,1.7.52,2,1.7H187Z"/><path class="cls-1" d="M151.68,3.55l.08,2.71h-.36c-.32-1.74-.75-2-3-2v8.13a1.21,1.21,0,0,0,1.37,1.37v.39h-4.26v-.39a1.21,1.21,0,0,0,1.38-1.37V4.23c-2.29,0-2.72.29-3,2h-.36l.09-2.71Z"/><path class="cls-1" d="M159.83,3.93V3.55h3.24v.38a2.25,2.25,0,0,0-1.51,1c-.35.56-2.61,4.33-2.61,4.33v3.08c0,1,.38,1.37,1.48,1.37v.39H156v-.39c1.11,0,1.48-.35,1.48-1.37V9.45L154.64,5a2,2,0,0,0-1.48-1V3.55h4.17v.38c-.58,0-1,.26-1,.56a1.23,1.23,0,0,0,.17.55c.07.13,2.11,3.49,2.11,3.49s2-3.53,2.09-3.62a.77.77,0,0,0,.08-.34C160.79,4.28,160.63,3.93,159.83,3.93Z"/><path class="cls-1" d="M134.82,3.32l.31,3.48h-.39c-.52-1.72-1.4-2.77-2.66-2.77a1.35,1.35,0,0,0-1.43,1.43c0,.93.69,1.48,1.54,2.05s1.43,1,1.7,1.16a3.41,3.41,0,0,1,1.54,2.66,2.92,2.92,0,0,1-3,3c-1.05,0-1.7-.52-2.23-.52-.28,0-.42.29-.49.52h-.35l-.44-3.51h.38c.64,1.8,1.59,2.85,2.91,2.85A1.67,1.67,0,0,0,134,11.88,2.17,2.17,0,0,0,132.8,10c-.7-.5-1.57-1.1-2.09-1.46A2.8,2.8,0,0,1,129.39,6,2.52,2.52,0,0,1,132,3.32c.71,0,1.51.46,1.95.46a.47.47,0,0,0,.49-.46Z"/><path class="cls-1" d="M140.64,5.31A1.22,1.22,0,0,1,142,3.93V3.55h-4.26v.38a1.22,1.22,0,0,1,1.38,1.38v7.05a1.21,1.21,0,0,1-1.38,1.37v.39H142v-.39a1.21,1.21,0,0,1-1.38-1.37Z"/><path class="cls-1" d="M116.44,11.36a2.75,2.75,0,0,1-2.75,2.05H112c-.61,0-.88-.21-.88-.71V8.94h2.28c.88,0,1.34.5,1.48,1.43h.36V6.72h-.39c-.06,1-.57,1.5-1.37,1.5h-2.36V4.69c0-.39.25-.47.58-.47h2c1.26,0,1.7.52,2,1.7h.36L116,3.53h-7.6v.39c.88,0,1.29.42,1.29,1.37v7.05c0,1-.41,1.38-1.29,1.38v.38h7.79l.69-2.74Z"/><path class="cls-1" d="M126.48,13.25c-.24-.29-2.58-3.51-3.11-4.22,1.89-.4,2.56-1.37,2.56-2.75,0-1.65-1.23-2.75-3.48-2.75h-4.23v.39c.89,0,1.29.42,1.29,1.37v7.05c0,1-.4,1.38-1.29,1.38v.38h4.09v-.38c-.89,0-1.29-.42-1.29-1.38V9.24l.8,0,3.43,4.88h2.3v-.33A1.45,1.45,0,0,1,126.48,13.25ZM121,8.61V5c0-.73.15-.9,1-.9,1.78,0,2.44.88,2.44,2.19,0,1.62-1.22,2.28-3,2.28Z"/><path class="cls-1" d="M94,5.29a1.21,1.21,0,0,1,1.37-1.37V3.53H91.16v.39a1.21,1.21,0,0,1,1.37,1.37v7.05a1.21,1.21,0,0,1-1.37,1.38v.38h4.25v-.38A1.21,1.21,0,0,1,94,12.34Z"/><path class="cls-1" d="M101,3.92V3.53H97.14v.39c.47,0,1,.3,1.29,1.1l3.82,9.25h.24s3.05-8.51,3.33-9.25.73-1.1,1.17-1.1V3.53h-3v.39c.66,0,1,.36,1,.82a1.49,1.49,0,0,1-.08.42l-2.23,6.22-2.63-6.32a1.19,1.19,0,0,1-.08-.47C100,4.17,100.35,3.92,101,3.92Z"/><path class="cls-1" d="M65.55.49c1.15,0,1.75.58,1.75,2.22V9.24c0,3.31,1.82,5.06,5,5.06a4.49,4.49,0,0,0,4.8-4.84V2.33c0-1.1.33-1.84,1.64-1.84V.1H74.56V.49c1.17,0,1.67.52,1.7,2s.11,5.16.11,7.38a3.75,3.75,0,0,1-7.5-.22V2.3c0-1.08.42-1.81,1.65-1.81V.1h-5Z"/><path class="cls-1" d="M85.59,3.53v.39c.82,0,1.31.63,1.31,1.59v5.56L81.41,3.53H79v.39a1.33,1.33,0,0,1,1,.47l.3.4v7.09c0,1.2-.41,1.84-1.37,1.84v.38h3.37v-.38c-.82,0-1.31-.55-1.31-1.51V5.72l6.31,8.55h.22V5.76c0-1.35.55-1.84,1.37-1.84V3.53Z"/><path class="cls-2" d="M144.36,25h3.92c3.93,0,6.72,2.6,6.72,6.38s-2.77,6.38-6.72,6.38h-3.92Zm3.79,10.45c2.84,0,4.13-1.69,4.13-4.07s-1.29-4.07-4.13-4.07H147v8.14Z"/><path class="cls-2" d="M157.38,29.78h2.53l0,1.44a2.41,2.41,0,0,1,2.35-1.61,2.66,2.66,0,0,1,1.24.31l-.81,2.31a2.21,2.21,0,0,0-1-.24c-1.15,0-1.77.53-1.77,2.23v3.55h-2.53Z"/><path class="cls-2" d="M165.43,26.85A1.61,1.61,0,1,1,167,28.44,1.58,1.58,0,0,1,165.43,26.85Zm.34,2.93h2.53v8h-2.53Z"/><path class="cls-2" d="M170.5,29.78h2.79l1.13,2.38a12.28,12.28,0,0,1,.66,2.12,12.56,12.56,0,0,1,.62-2.12l1.09-2.38h2.57l-4.28,8.16h-.25Z"/><path class="cls-2" d="M185.37,35.84a3.5,3.5,0,0,0,2-.64l1.44,1.56a4.78,4.78,0,0,1-3.41,1.18c-2.86,0-4.7-1.72-4.7-4.18a4.17,4.17,0,0,1,4.41-4.15c2.88,0,4.43,2.14,4.25,4.93H183.3A1.89,1.89,0,0,0,185.37,35.84Zm1.44-2.76a1.51,1.51,0,0,0-1.67-1.41,1.72,1.72,0,0,0-1.88,1.41Z"/><path class="cls-2" d="M192,29.78h2.54l-.06,1.31A2.73,2.73,0,0,1,197,29.61c1.75,0,3,1.27,3,3.54v4.62h-2.54V33.32c0-.9-.43-1.4-1.33-1.4a1.45,1.45,0,0,0-1.61,1.57v4.28H192Z"/><path class="cls-2" d="M208.78,34.77V31.88h-1.19v-2.1h1.19V25.61h2.51v4.17h2.05v2.1h-2.05v3c0,.81.27,1,.66,1a1.57,1.57,0,0,0,.88-.34l1,1.77a3.35,3.35,0,0,1-2.23.73C209.94,38,208.78,37.17,208.78,34.77Z"/><path class="cls-2" d="M215.65,33.79a4.41,4.41,0,1,1,4.41,4.15A4.19,4.19,0,0,1,215.65,33.79Zm6.21,0a1.82,1.82,0,1,0-3.62,0,1.82,1.82,0,1,0,3.62,0Z"/><path class="cls-2" d="M232.52,25h3.93c3.92,0,6.72,2.6,6.72,6.38s-2.78,6.38-6.72,6.38h-3.93Zm3.8,10.45c2.83,0,4.13-1.69,4.13-4.07s-1.3-4.07-4.13-4.07h-1.17v8.14Z"/><path class="cls-2" d="M245.74,26.85a1.61,1.61,0,1,1,1.61,1.59A1.58,1.58,0,0,1,245.74,26.85Zm.34,2.93h2.53v8h-2.53Z"/><path class="cls-2" d="M251.05,36.42l1.48-1.31a2.9,2.9,0,0,0,2,.84c.82,0,1.09-.15,1.09-.49s-.51-.43-1.81-.77a2.59,2.59,0,0,1-2.31-2.55c0-1.8,1.39-2.53,3.1-2.53a3.9,3.9,0,0,1,2.91,1.1l-1.35,1.45a2.48,2.48,0,0,0-1.54-.6c-.58,0-.86.15-.86.47s.5.5,1.59.75,2.63.81,2.63,2.5c0,1.46-.77,2.66-3.28,2.66A4.45,4.45,0,0,1,251.05,36.42Z"/><path class="cls-2" d="M260.2,33.76a4.13,4.13,0,0,1,4.37-4.15,3.91,3.91,0,0,1,3.36,1.59l-1.8,1.47a1.88,1.88,0,0,0-1.56-.85,1.75,1.75,0,0,0-1.79,1.94,1.77,1.77,0,0,0,1.79,2,2.06,2.06,0,0,0,1.61-.75l1.71,1.51a4.05,4.05,0,0,1-3.32,1.44A4.13,4.13,0,0,1,260.2,33.76Z"/><path class="cls-2" d="M269.9,33.79a4.41,4.41,0,1,1,4.41,4.15A4.19,4.19,0,0,1,269.9,33.79Zm6.21,0a1.78,1.78,0,0,0-1.8-2,1.8,1.8,0,0,0-1.82,2,1.81,1.81,0,0,0,1.82,2A1.79,1.79,0,0,0,276.11,33.79Z"/><path class="cls-2" d="M280.06,29.78h2.8L284,32.16a12.28,12.28,0,0,1,.66,2.12,12.56,12.56,0,0,1,.62-2.12l1.09-2.38h2.57l-4.28,8.16h-.24Z"/><path class="cls-2" d="M294.93,35.84a3.44,3.44,0,0,0,2-.64l1.45,1.56A4.79,4.79,0,0,1,295,37.94c-2.85,0-4.69-1.72-4.69-4.18a4.18,4.18,0,0,1,4.41-4.15c2.88,0,4.43,2.14,4.25,4.93h-6.07A1.89,1.89,0,0,0,294.93,35.84Zm1.44-2.76a1.51,1.51,0,0,0-1.67-1.41,1.7,1.7,0,0,0-1.87,1.41Z"/><path class="cls-2" d="M301.59,29.78h2.54l0,1.44a2.41,2.41,0,0,1,2.35-1.61,2.65,2.65,0,0,1,1.23.31l-.8,2.31a2.22,2.22,0,0,0-1-.24c-1.15,0-1.76.53-1.76,2.23v3.55h-2.54Z"/><path class="cls-2" d="M312.71,28.45a2.21,2.21,0,0,1,.73.46,2.42,2.42,0,0,1,.48.67,2.29,2.29,0,0,1,.23,1,2.26,2.26,0,0,1-.31,1.15,2.08,2.08,0,0,1-.84.85,2.23,2.23,0,0,1-2.27,0,2.08,2.08,0,0,1-.84-.85,2.26,2.26,0,0,1-.31-1.15,2.23,2.23,0,0,1,.2-.94,2.3,2.3,0,0,1,.49-.71,2.53,2.53,0,0,1,.65-.45,2.41,2.41,0,0,1,.94-.2A2.08,2.08,0,0,1,312.71,28.45Zm1.62,1A2.7,2.7,0,0,0,313,28.11a2.5,2.5,0,0,0-1.1-.24,2.64,2.64,0,0,0-1.17.27,2.93,2.93,0,0,0-.75.53,2.8,2.8,0,0,0-.56.84,2.56,2.56,0,0,0-.22,1.07,2.73,2.73,0,0,0,.36,1.35,2.53,2.53,0,0,0,1,1,2.67,2.67,0,0,0,1.34.36,2.73,2.73,0,0,0,1.19-.27,3,3,0,0,0,.78-.57,2.82,2.82,0,0,0,.55-.86,3,3,0,0,0,.19-1A2.75,2.75,0,0,0,314.33,29.46ZM311.77,31a.82.82,0,0,1,.39.07.35.35,0,0,1,.19.19,1,1,0,0,1,.08.39,1.91,1.91,0,0,0,.05.45h.64a1.56,1.56,0,0,1-.05-.4,1.74,1.74,0,0,0,0-.38.68.68,0,0,0-.12-.3.55.55,0,0,0-.21-.19,1.4,1.4,0,0,0-.33-.11,1.19,1.19,0,0,0,.33-.07.71.71,0,0,0,.3-.27.75.75,0,0,0,.11-.4.81.81,0,0,0-.11-.41,1,1,0,0,0-.26-.28,1.15,1.15,0,0,0-.42-.15,3.51,3.51,0,0,0-.53,0h-1.07v3h.66V31Zm.36-1.38a.49.49,0,0,1,.24.15.45.45,0,0,1,.08.26.44.44,0,0,1-.07.26.47.47,0,0,1-.23.18,1.06,1.06,0,0,1-.31,0h-.45v-.95h.45A1.1,1.1,0,0,1,312.13,29.59Z"/><path class="cls-2" d="M54.6,29.13l-10.21-17H47.2V3.32h-17v8.84H33l-3.9,6.48-3.9-6.48H28V3.32H11v8.84h2.81l-10.21,17H0V38H17.33V29.13H14.22l5.32-8.84,2.06,3.43h-2v8.84h19V23.72h-2l2.07-3.43L44,29.13H40.91V38H58.24V29.13Z"/></svg>