<svg id="Layer_1" data-name="Layer 1" xmlns="http://www.w3.org/2000/svg" viewBox="0 0 357.44 37.98"><defs><style>.cls-1{fill:#fff;stroke:#fff;stroke-width:0.2px;}.cls-2{fill:#ffcd34;}</style></defs><title>web</title><path class="cls-1" d="M276.19,3.54l.08,2.71h-.36c-.33-1.74-.75-2-3.05-2v8.13a1.21,1.21,0,0,0,1.38,1.37v.38H270v-.38a1.21,1.21,0,0,0,1.38-1.37V4.22c-2.3,0-2.72.29-3.05,2H268L268,3.54Z"/><path class="cls-1" d="M262.08,3.33c-2.61,0-4.72,2.15-4.72,5.48s2.11,5.47,4.72,5.47,4.72-2.14,4.72-5.47S264.68,3.33,262.08,3.33Zm0,10.33c-2,0-3.11-1.9-3.11-4.85S260.1,4,262.08,4s3.11,1.9,3.11,4.85S264.06,13.66,262.08,13.66Z"/><path class="cls-1" d="M284.44,12.8c-.2-.49-3.74-9.41-3.74-9.41h-.35s-3.13,8.17-3.52,9.14-.85,1.19-1.22,1.19v.38h2.88v-.38a.86.86,0,0,1-.9-.75,1.58,1.58,0,0,1,.05-.41c0-.08.33-.88.7-1.9H282c.38,1,.66,1.8.68,1.84a1.89,1.89,0,0,1,.11.47c0,.4-.33.75-1,.75v.38h3.71v-.38A1.36,1.36,0,0,1,284.44,12.8Zm-5.82-2.88c.71-1.94,1.56-4.23,1.56-4.23S281,8,281.73,9.92Z"/><path class="cls-1" d="M246.85,11.36a2.74,2.74,0,0,1-2.75,2.06h-1.67c-.62,0-.88-.21-.88-.72V8.94h2.27c.88,0,1.35.5,1.49,1.43h.36V6.72h-.39c-.05,1-.58,1.51-1.37,1.51h-2.36V4.69c0-.39.25-.47.58-.47h2c1.26,0,1.7.52,2,1.7h.36l-.08-2.38h-7.6v.38c.88,0,1.28.42,1.28,1.37v7.06c0,1-.4,1.37-1.28,1.37v.38h7.79l.69-2.74Z"/><path class="cls-1" d="M254.89,3.32l.3,3.48h-.38c-.53-1.71-1.4-2.77-2.67-2.77a1.34,1.34,0,0,0-1.42,1.43c0,.93.68,1.48,1.54,2.06L254,8.67a3.41,3.41,0,0,1,1.54,2.66,2.92,2.92,0,0,1-3,3c-1,0-1.7-.52-2.22-.52-.29,0-.43.29-.49.52h-.36L249,10.81h.38c.65,1.8,1.59,2.85,2.91,2.85A1.66,1.66,0,0,0,254,11.88,2.19,2.19,0,0,0,252.86,10c-.7-.5-1.57-1.1-2.09-1.46A2.8,2.8,0,0,1,249.45,6a2.52,2.52,0,0,1,2.61-2.66c.71,0,1.51.46,1.95.46a.46.46,0,0,0,.49-.46Z"/><path class="cls-1" d="M233.89,3.54v.38c.83,0,1.32.63,1.32,1.59v5.56l-5.49-7.53h-2.39v.38a1.32,1.32,0,0,1,1,.47s.13.17.31.4v7.09c0,1.21-.42,1.84-1.38,1.84v.38h3.38v-.38c-.83,0-1.32-.55-1.32-1.51V5.72l6.31,8.55h.23V5.76c0-1.35.54-1.84,1.37-1.84V3.54Z"/><path class="cls-1" d="M222.17,3.54v.38c.83,0,1.32.63,1.32,1.59v5.56L218,3.54h-2.39v.38a1.32,1.32,0,0,1,1,.47s.14.17.31.4v7.09c0,1.21-.41,1.84-1.37,1.84v.38H219v-.38c-.82,0-1.32-.55-1.32-1.51V5.72L224,14.27h.22V5.76c0-1.35.54-1.84,1.37-1.84V3.54Z"/><path class="cls-1" d="M208,.49V.11h-3.27l-4.25,11.41L196.21.11h-3.32V.49c1.4,0,1.78.77,1.78,2.14v8.59c0,2-.56,2.5-1.81,2.5v.38h4.31v-.38c-1.21,0-1.79-.52-1.79-2.5v-9l4.45,11.89h.41L204.77,2v9.19c0,2-.45,2.5-1.7,2.5v.38H208v-.38c-1.21,0-1.68-.52-1.68-2.5V2.44C206.33.85,207.19.49,208,.49Z"/><path class="cls-1" d="M212,5.29a1.21,1.21,0,0,1,1.38-1.37V3.54h-4.26v.38a1.21,1.21,0,0,1,1.37,1.37v7.06a1.21,1.21,0,0,1-1.37,1.37v.38h4.26v-.38A1.21,1.21,0,0,1,212,12.35Z"/><path class="cls-1" d="M173.09,3.35c-2.61,0-4.72,2.14-4.72,5.47s2.11,5.47,4.72,5.47,4.71-2.14,4.71-5.47S175.69,3.35,173.09,3.35Zm0,10.32c-2,0-3.11-1.9-3.11-4.85S171.11,4,173.09,4s3.1,1.9,3.1,4.85S175.06,13.67,173.09,13.67Z"/><path class="cls-1" d="M187,3.54h-7.68v.38c.88,0,1.28.42,1.28,1.37v7.06c0,1-.4,1.37-1.28,1.37v.38h4.08v-.38A1.2,1.2,0,0,1,182,12.35V8.94h2.19c.88,0,1.35.5,1.49,1.43h.35V6.72h-.38c-.06,1-.58,1.51-1.38,1.51H182V4.69c0-.39.25-.47.57-.47h2.12c1.26,0,1.7.52,2,1.7H187Z"/><path class="cls-1" d="M151.68,3.55l.08,2.72h-.36c-.33-1.75-.75-2-3.05-2v8.12a1.21,1.21,0,0,0,1.38,1.37v.39h-4.26v-.39a1.21,1.21,0,0,0,1.38-1.37V4.24c-2.3,0-2.72.28-3,2h-.36l.08-2.72Z"/><path class="cls-1" d="M159.83,3.93V3.55h3.24v.38a2.23,2.23,0,0,0-1.51,1c-.35.56-2.61,4.34-2.61,4.34v3.07c0,1,.37,1.37,1.48,1.37v.39H156v-.39c1.1,0,1.48-.34,1.48-1.37V9.45s-2.5-4-2.8-4.47a2.06,2.06,0,0,0-1.48-1.05V3.55h4.17v.38c-.58,0-1,.27-1,.56a1.23,1.23,0,0,0,.17.55c.07.13,2.11,3.49,2.11,3.49l2.09-3.62a.77.77,0,0,0,.08-.34C160.79,4.28,160.62,3.93,159.83,3.93Z"/><path class="cls-1" d="M134.82,3.32l.31,3.48h-.39c-.52-1.71-1.4-2.77-2.66-2.77a1.34,1.34,0,0,0-1.43,1.43c0,.93.69,1.48,1.54,2.06l1.7,1.15a3.41,3.41,0,0,1,1.54,2.66,2.92,2.92,0,0,1-3,3c-1.05,0-1.7-.52-2.23-.52-.29,0-.42.29-.49.52h-.36l-.44-3.51h.39c.64,1.8,1.59,2.85,2.91,2.85A1.67,1.67,0,0,0,134,11.88,2.17,2.17,0,0,0,132.79,10L130.71,8.5A2.8,2.8,0,0,1,129.39,6,2.52,2.52,0,0,1,132,3.32c.71,0,1.51.46,1.95.46a.47.47,0,0,0,.49-.46Z"/><path class="cls-1" d="M140.64,5.31A1.22,1.22,0,0,1,142,3.93V3.55h-4.25v.38a1.21,1.21,0,0,1,1.37,1.38v7.05a1.21,1.21,0,0,1-1.37,1.37v.39H142v-.39a1.21,1.21,0,0,1-1.37-1.37Z"/><path class="cls-1" d="M116.43,11.36a2.73,2.73,0,0,1-2.74,2.06H112c-.62,0-.88-.21-.88-.72V8.94h2.28c.87,0,1.34.5,1.48,1.43h.35V6.72h-.38c-.06,1-.58,1.51-1.37,1.51h-2.36V4.69c0-.39.25-.47.58-.47h2c1.27,0,1.71.52,2,1.7h.36L116,3.54h-7.61v.38c.89,0,1.29.42,1.29,1.37v7.06c0,1-.4,1.37-1.29,1.37v.38h7.8l.68-2.74Z"/><path class="cls-1" d="M126.48,13.25c-.25-.29-2.59-3.51-3.11-4.22,1.89-.4,2.56-1.36,2.56-2.75,0-1.64-1.24-2.74-3.48-2.74h-4.23v.38c.89,0,1.29.42,1.29,1.37v7.06c0,1-.4,1.37-1.29,1.37v.38h4.09v-.38c-.89,0-1.29-.42-1.29-1.37V9.24l.8,0,3.42,4.88h2.31v-.32A1.44,1.44,0,0,1,126.48,13.25ZM121,8.61V5c0-.73.14-.9,1-.9,1.78,0,2.44.88,2.44,2.19,0,1.63-1.22,2.28-3,2.28Z"/><path class="cls-1" d="M94,5.29a1.21,1.21,0,0,1,1.37-1.37V3.54H91.15v.38a1.21,1.21,0,0,1,1.38,1.37v7.06a1.21,1.21,0,0,1-1.38,1.37v.38h4.26v-.38A1.21,1.21,0,0,1,94,12.35Z"/><path class="cls-1" d="M101,3.92V3.54H97.14v.38c.47,0,1,.3,1.29,1.1s3.81,9.25,3.81,9.25h.25s3.05-8.51,3.32-9.25.74-1.1,1.18-1.1V3.54h-3v.38c.66,0,1,.36,1,.82a1.22,1.22,0,0,1-.09.42l-2.22,6.23-2.63-6.32a1.28,1.28,0,0,1-.09-.48C100,4.17,100.35,3.92,101,3.92Z"/><path class="cls-1" d="M65.55.49c1.15,0,1.75.58,1.75,2.22V9.25c0,3.3,1.81,5.05,5,5.05a4.49,4.49,0,0,0,4.8-4.84V2.33c0-1.1.34-1.84,1.65-1.84V.11H74.55V.49c1.18,0,1.67.52,1.7,2s.11,5.16.11,7.38a3.75,3.75,0,0,1-7.49-.22V2.3c0-1.08.41-1.81,1.65-1.81V.11h-5Z"/><path class="cls-1" d="M85.58,3.54v.38c.83,0,1.32.63,1.32,1.59v5.56L81.41,3.54H79v.38a1.34,1.34,0,0,1,1,.47l.3.4v7.09c0,1.21-.41,1.84-1.37,1.84v.38h3.37v-.38c-.82,0-1.32-.55-1.32-1.51V5.72l6.32,8.55h.22V5.76c0-1.35.55-1.84,1.37-1.84V3.54Z"/><path class="cls-1" d="M296.88.1c4.55,0,7.59,2.3,7.59,7.07,0,2.83-1.52,7-7.32,7h-5.61v-.38c1.42,0,1.84-.53,1.84-2.53V3c0-2-.42-2.53-1.84-2.53V.1Zm-1.24.7c-.46,0-.7.1-.7.72V12.6c0,.77.4.82,2,.82,1.2,0,5.82,0,5.82-6.23C302.77,3,300.51.84,296.7.8Z"/><path class="cls-1" d="M313.8,5.31c0-1-.38-1.38-1.3-1.38V3.55h3.22v.38c-1,0-1.24.44-1.24,1.32v5.23c0,2.68-1.58,3.85-3.57,3.85-2.56,0-3.88-1.37-3.88-3.87V5.31a1.21,1.21,0,0,0-1.36-1.38V3.55h4.2v.38a1.21,1.21,0,0,0-1.36,1.38v5.53a2.54,2.54,0,0,0,2.74,2.68,2.44,2.44,0,0,0,2.55-2.76Z"/><path class="cls-1" d="M317.32,14.13v-.38a1.21,1.21,0,0,0,1.36-1.39v-7a1.21,1.21,0,0,0-1.36-1.38V3.55h4.4v.38c-1.14,0-1.56.42-1.56,1.38v7.41c0,.5.28.72.88.72h1.68a2.66,2.66,0,0,0,2.74-1.92h.44l-.68,2.61Z"/><path class="cls-1" d="M334,5.31c0-1-.38-1.38-1.3-1.38V3.55H336v.38c-1,0-1.24.44-1.24,1.32v5.23c0,2.68-1.58,3.85-3.58,3.85-2.55,0-3.87-1.37-3.87-3.87V5.31a1.21,1.21,0,0,0-1.36-1.38V3.55h4.2v.38a1.2,1.2,0,0,0-1.36,1.38v5.53a2.54,2.54,0,0,0,2.73,2.68A2.44,2.44,0,0,0,334,10.76Z"/><path class="cls-1" d="M345.34,3.55l.08,2.72h-.36c-.32-1.74-.75-2-3-2v8.13a1.21,1.21,0,0,0,1.36,1.39v.38h-4.2v-.38a1.21,1.21,0,0,0,1.36-1.39V4.23c-2.28,0-2.72.3-3,2h-.36l.08-2.72Z"/><path class="cls-1" d="M356,12.36a1.21,1.21,0,0,0,1.36,1.39v.38h-4.2v-.38a1.21,1.21,0,0,0,1.36-1.39V9.12h-5v3.24a1.21,1.21,0,0,0,1.36,1.39v.38h-4.2v-.38A1.21,1.21,0,0,0,348,12.36v-7a1.21,1.21,0,0,0-1.36-1.38V3.55h4.2v.38a1.21,1.21,0,0,0-1.36,1.38V8.44h5V5.31a1.21,1.21,0,0,0-1.36-1.38V3.55h4.2v.38A1.21,1.21,0,0,0,356,5.31Z"/><path class="cls-2" d="M129.78,25h3.93c3.92,0,6.72,2.61,6.72,6.38s-2.78,6.38-6.72,6.38h-3.93Zm3.8,10.45c2.83,0,4.13-1.69,4.13-4.07s-1.3-4.07-4.13-4.07h-1.17v8.14Z"/><path class="cls-2" d="M142.8,29.78h2.53l0,1.44a2.4,2.4,0,0,1,2.34-1.61,2.54,2.54,0,0,1,1.24.32l-.81,2.31a2.06,2.06,0,0,0-1-.25c-1.15,0-1.77.53-1.77,2.24v3.54H142.8Z"/><path class="cls-2" d="M150.85,26.85a1.59,1.59,0,0,1,1.62-1.58,1.59,1.59,0,1,1-1.62,1.58Zm.34,2.93h2.53v8h-2.53Z"/><path class="cls-2" d="M155.92,29.78h2.8l1.12,2.38a12.28,12.28,0,0,1,.66,2.12,12.56,12.56,0,0,1,.62-2.12l1.09-2.38h2.57l-4.28,8.16h-.24Z"/><path class="cls-2" d="M170.79,35.84a3.5,3.5,0,0,0,2-.64l1.45,1.56a4.76,4.76,0,0,1-3.42,1.18c-2.86,0-4.69-1.72-4.69-4.18a4.17,4.17,0,0,1,4.41-4.15c2.87,0,4.43,2.14,4.24,4.93h-6.06A1.88,1.88,0,0,0,170.79,35.84Zm1.45-2.76a1.52,1.52,0,0,0-1.67-1.41,1.71,1.71,0,0,0-1.88,1.41Z"/><path class="cls-2" d="M177.46,29.78H180l-.06,1.31a2.74,2.74,0,0,1,2.54-1.48c1.74,0,3,1.27,3,3.55v4.61h-2.53V33.32a1.22,1.22,0,0,0-1.34-1.4A1.45,1.45,0,0,0,180,33.49v4.28h-2.53Z"/><path class="cls-2" d="M194.2,34.77V31.88H193v-2.1h1.18V25.61h2.52v4.17h2v2.1h-2v3c0,.8.26,1,.65,1a1.51,1.51,0,0,0,.89-.34l1,1.77A3.35,3.35,0,0,1,197,38C195.36,38,194.2,37.17,194.2,34.77Z"/><path class="cls-2" d="M201.07,33.79a4.41,4.41,0,1,1,4.41,4.15A4.19,4.19,0,0,1,201.07,33.79Zm6.21,0a1.78,1.78,0,0,0-1.8-2,1.8,1.8,0,0,0-1.82,2,1.81,1.81,0,0,0,1.82,2A1.79,1.79,0,0,0,207.28,33.79Z"/><path class="cls-2" d="M218,25h3.92c3.93,0,6.72,2.61,6.72,6.38s-2.78,6.38-6.72,6.38H218Zm3.79,10.45c2.83,0,4.13-1.69,4.13-4.07s-1.3-4.07-4.13-4.07h-1.16v8.14Z"/><path class="cls-2" d="M231.17,26.85a1.58,1.58,0,0,1,1.61-1.58,1.59,1.59,0,1,1-1.61,1.58Zm.33,2.93H234v8H231.5Z"/><path class="cls-2" d="M236.48,36.42,238,35.11a2.88,2.88,0,0,0,2,.84c.82,0,1.09-.15,1.09-.49s-.51-.43-1.81-.77a2.59,2.59,0,0,1-2.3-2.55c0-1.8,1.38-2.53,3.09-2.53a3.87,3.87,0,0,1,2.91,1.1l-1.35,1.45a2.45,2.45,0,0,0-1.54-.6c-.58,0-.86.15-.86.47s.51.51,1.59.75,2.63.81,2.63,2.5c0,1.46-.77,2.66-3.28,2.66A4.41,4.41,0,0,1,236.48,36.42Z"/><path class="cls-2" d="M245.62,33.76A4.13,4.13,0,0,1,250,29.61a3.91,3.91,0,0,1,3.36,1.59l-1.8,1.47a1.88,1.88,0,0,0-1.56-.85,1.74,1.74,0,0,0-1.78,1.94,1.77,1.77,0,0,0,1.78,2,2.14,2.14,0,0,0,1.62-.75l1.7,1.5A4,4,0,0,1,250,37.94,4.14,4.14,0,0,1,245.62,33.76Z"/><path class="cls-2" d="M255.32,33.79a4.41,4.41,0,1,1,4.42,4.15A4.2,4.2,0,0,1,255.32,33.79Zm6.22,0a1.82,1.82,0,1,0-3.63,0,1.82,1.82,0,1,0,3.63,0Z"/><path class="cls-2" d="M265.48,29.78h2.8l1.12,2.38a12.28,12.28,0,0,1,.66,2.12,12.56,12.56,0,0,1,.62-2.12l1.09-2.38h2.57l-4.28,8.16h-.24Z"/><path class="cls-2" d="M280.35,35.84a3.5,3.5,0,0,0,2-.64l1.44,1.56a4.72,4.72,0,0,1-3.41,1.18c-2.86,0-4.7-1.72-4.7-4.18a4.18,4.18,0,0,1,4.42-4.15c2.87,0,4.43,2.14,4.24,4.93h-6.06A1.88,1.88,0,0,0,280.35,35.84Zm1.45-2.76a1.52,1.52,0,0,0-1.67-1.41,1.71,1.71,0,0,0-1.88,1.41Z"/><path class="cls-2" d="M287,29.78h2.53l0,1.44a2.41,2.41,0,0,1,2.35-1.61,2.57,2.57,0,0,1,1.24.32l-.81,2.31a2.09,2.09,0,0,0-1-.25c-1.15,0-1.77.53-1.77,2.24v3.54H287Z"/><path class="cls-2" d="M298.14,28.45a2,2,0,0,1,.72.47,2.3,2.3,0,0,1,.71,1.66,2.32,2.32,0,0,1-.3,1.15,2.17,2.17,0,0,1-.85.85,2.23,2.23,0,0,1-2.27,0,2.08,2.08,0,0,1-.84-.85,2.33,2.33,0,0,1-.31-1.15,2.18,2.18,0,0,1,.2-.93,2.37,2.37,0,0,1,.5-.72,2.09,2.09,0,0,1,.64-.44,2.23,2.23,0,0,1,1.8,0Zm1.61,1a2.75,2.75,0,0,0-.52-.77,2.85,2.85,0,0,0-.84-.58,2.52,2.52,0,0,0-1.1-.23,2.79,2.79,0,0,0-1.18.26,2.74,2.74,0,0,0-.75.54,2.81,2.81,0,0,0-.56.83,2.73,2.73,0,0,0,.14,2.43,2.51,2.51,0,0,0,1,1,2.73,2.73,0,0,0,1.35.36,2.68,2.68,0,0,0,1.18-.27,3,3,0,0,0,.78-.57,2.49,2.49,0,0,0,.55-.86,2.7,2.7,0,0,0,.19-1A2.75,2.75,0,0,0,299.75,29.46ZM297.2,31a.82.82,0,0,1,.39.07.39.39,0,0,1,.19.19,1.08,1.08,0,0,1,.07.39,1.7,1.7,0,0,0,.06.45h.63a1.65,1.65,0,0,1,0-.39q0-.27,0-.39a1.17,1.17,0,0,0-.12-.3.72.72,0,0,0-.21-.18,1,1,0,0,0-.33-.12,1,1,0,0,0,.33-.07.69.69,0,0,0,.29-.27.75.75,0,0,0,.11-.4.85.85,0,0,0-.1-.4.81.81,0,0,0-.27-.28,1.1,1.1,0,0,0-.41-.16,3.57,3.57,0,0,0-.54,0h-1.07v3h.67V31Zm.35-1.38a.49.49,0,0,1,.24.15.41.41,0,0,1,.08.27.43.43,0,0,1-.07.25.47.47,0,0,1-.23.18.78.78,0,0,1-.31.06h-.44v-1h.44A1,1,0,0,1,297.55,29.59Z"/><path class="cls-2" d="M54.6,29.13l-10.21-17H47.2V3.32h-17v8.84H33l-3.9,6.49-3.9-6.49H28V3.32H11v8.84h2.81l-10.21,17H0V38H17.33V29.13H14.22l5.32-8.84,2.06,3.43h-2v8.84h19V23.72h-2l2.07-3.43L44,29.13H40.91V38H58.24V29.13Z"/></svg>