<?xml version="1.0" encoding="utf-8"?>
<!-- Generator: Adobe Illustrator 23.0.2, SVG Export Plug-In . SVG Version: 6.00 Build 0)  -->
<svg version="1.1" id="Layer_1" xmlns="http://www.w3.org/2000/svg" xmlns:xlink="http://www.w3.org/1999/xlink" x="0px" y="0px"
	 viewBox="0 0 376.51 28.8" style="enable-background:new 0 0 376.51 28.8;" xml:space="preserve">
<style type="text/css">
	.st0{stroke:#000000;stroke-width:0.2;}
	.st1{fill:#7A0019;}
	.st2{fill:#FFFFFF;stroke:#FFFFFF;stroke-width:0.2;}
	.st3{fill:#FFCD34;}
	.st4{stroke:#000000;stroke-width:0.2;stroke-miterlimit:10;}
	.st5{fill:#FFFFFF;stroke:#FFFFFF;stroke-width:0.2;stroke-miterlimit:10;}
	.st6{stroke:#000000;stroke-width:0.1;stroke-miterlimit:10;}
	.st7{fill:#FFFFFF;stroke:#FFFFFF;stroke-width:0.1;stroke-miterlimit:10;}
</style>
<g>
	<g>
		<g>
			<path class="st2" d="M288.75,14.39v5.38c0,0.76,0.44,0.82,2.22,0.82c2.42,0,3.8-0.06,4.88-2.64h0.48l-0.82,3.34h-10.16v-0.38
				c1.42,0,1.84-0.52,1.84-2.52v-8.2c0-1.98-0.42-2.52-1.84-2.52V7.28h9.92l0.12,3.14h-0.44c-0.48-2.08-0.92-2.44-3.08-2.44h-2.42
				c-0.46,0-0.7,0.1-0.7,0.72v4.96h2.02c2.46,0,3.06-0.46,3.12-1.84h0.44v4.4h-0.44c-0.08-1.36-0.64-1.84-3.12-1.84H288.75z"/>
			<path class="st2" d="M302.85,16.73l-2.12,2.8c-0.58,0.76-0.32,1.38,0.56,1.38v0.38h-3.56v-0.38c0.88,0,1.58-0.62,2.16-1.38
				l2.58-3.4l-2.26-3.64c-0.5-0.82-1.28-1.38-2.16-1.38v-0.38h4.38v0.38c-0.88,0-1.06,0.56-0.56,1.38l1.5,2.44l1.86-2.44
				c0.58-0.76,0.36-1.38-0.52-1.38v-0.38h3.56v0.38c-0.88,0-1.62,0.62-2.2,1.38l-2.32,3.04l2.5,4c0.5,0.82,1.2,1.38,2.08,1.38v0.38
				h-4.38v-0.38c0.88,0,1.14-0.56,0.64-1.38L302.85,16.73z"/>
			<path class="st2" d="M317.93,10.73l0.08,2.72h-0.36c-0.32-1.74-0.76-2.04-3.04-2.04v8.12c0,0.96,0.48,1.38,1.36,1.38v0.38h-4.2
				v-0.38c0.88,0,1.36-0.42,1.36-1.38v-8.12c-2.28,0-2.72,0.3-3.04,2.04h-0.36l0.08-2.72H317.93z"/>
			<path class="st2" d="M328.53,18.55l-0.68,2.74h-7.84v-0.38c0.9,0,1.3-0.42,1.3-1.38v-7.04c0-0.96-0.4-1.38-1.3-1.38v-0.38h7.64
				l0.1,2.38h-0.36c-0.28-1.18-0.72-1.7-1.98-1.7h-2.04c-0.32,0-0.58,0.08-0.58,0.48v3.56h2.36c0.8,0,1.32-0.5,1.38-1.52h0.38v3.64
				h-0.34c-0.14-0.94-0.62-1.44-1.5-1.44h-2.28v3.76c0,0.5,0.28,0.72,0.88,0.72h1.68c1.68,0,2.28-0.96,2.74-2.06H328.53z"/>
			<path class="st2" d="M340.09,10.73v0.38c-0.82,0-1.38,0.5-1.38,1.84v8.52h-0.2l-6.32-8.56v6.5c0,0.96,0.5,1.5,1.32,1.5v0.38
				h-3.38v-0.38c0.96,0,1.38-0.62,1.38-1.84v-7.08l-0.32-0.42c-0.18-0.24-0.56-0.46-1.04-0.46v-0.38h2.4l5.48,7.54v-5.56
				c0-0.96-0.5-1.6-1.32-1.6v-0.38H340.09z"/>
			<path class="st2" d="M347.21,10.51l0.3,3.48h-0.38c-0.54-1.72-1.42-2.76-2.68-2.76c-0.9,0-1.42,0.6-1.42,1.42
				c0,0.94,0.68,1.48,1.54,2.06l1.7,1.16c0.78,0.54,1.54,1.52,1.54,2.66c0,1.72-1.3,2.98-3,2.98c-1.04,0-1.7-0.52-2.22-0.52
				c-0.28,0-0.42,0.3-0.5,0.52h-0.36l-0.44-3.5h0.4c0.64,1.8,1.58,2.84,2.9,2.84c1,0,1.74-0.66,1.74-1.78c0-1-0.54-1.48-1.16-1.92
				l-2.08-1.46c-0.82-0.56-1.32-1.3-1.32-2.52c0-1.46,0.96-2.66,2.6-2.66c0.72,0,1.52,0.46,1.96,0.46c0.32,0,0.46-0.22,0.48-0.46
				H347.21z"/>
			<path class="st2" d="M352.45,19.53c0,0.96,0.48,1.38,1.36,1.38v0.38h-4.2v-0.38c0.88,0,1.36-0.42,1.36-1.38v-7.04
				c0-0.96-0.48-1.38-1.36-1.38v-0.38h4.2v0.38c-0.88,0-1.36,0.42-1.36,1.38V19.53z"/>
			<path class="st2" d="M364.85,15.99c0,3.34-2.1,5.48-4.72,5.48c-2.6,0-4.72-2.14-4.72-5.48c0-3.32,2.12-5.46,4.72-5.46
				C362.75,10.53,364.85,12.67,364.85,15.99z M363.25,15.99c0-2.94-1.14-4.84-3.12-4.84c-1.98,0-3.1,1.9-3.1,4.84
				c0,2.96,1.12,4.86,3.1,4.86C362.11,20.85,363.25,18.95,363.25,15.99z"/>
			<path class="st2" d="M376.41,10.73v0.38c-0.82,0-1.38,0.5-1.38,1.84v8.52h-0.2l-6.32-8.56v6.5c0,0.96,0.5,1.5,1.32,1.5v0.38
				h-3.38v-0.38c0.96,0,1.38-0.62,1.38-1.84v-7.08l-0.32-0.42c-0.18-0.24-0.56-0.46-1.04-0.46v-0.38h2.4l5.48,7.54v-5.56
				c0-0.96-0.5-1.6-1.32-1.6v-0.38H376.41z"/>
		</g>
		<g>
			<path class="st2" d="M269.99,10.73l0.08,2.72h-0.36c-0.33-1.74-0.75-2.03-3.05-2.03v8.12c0,0.95,0.49,1.37,1.37,1.37v0.38h-4.25
				v-0.38c0.89,0,1.37-0.42,1.37-1.37v-8.12c-2.29,0-2.72,0.29-3.05,2.03h-0.35l0.08-2.72H269.99z"/>
			<path class="st2" d="M255.88,10.52c-2.61,0-4.72,2.14-4.72,5.47c0,3.33,2.11,5.47,4.72,5.47c2.61,0,4.72-2.14,4.72-5.47
				C260.6,12.67,258.49,10.52,255.88,10.52z M255.88,20.85c-1.98,0-3.11-1.9-3.11-4.85c0-2.95,1.13-4.85,3.11-4.85
				c1.98,0,3.11,1.9,3.11,4.85C259,18.95,257.86,20.85,255.88,20.85z"/>
			<path class="st2" d="M278.24,19.99c-0.19-0.49-3.74-9.41-3.74-9.41h-0.35c0,0-3.13,8.18-3.51,9.14c-0.38,0.96-0.85,1.2-1.22,1.2
				v0.38h2.88v-0.38c-0.42,0-0.9-0.3-0.9-0.76c0-0.14,0.01-0.3,0.05-0.4c0.02-0.08,0.32-0.88,0.7-1.91h3.66
				c0.37,1.02,0.66,1.8,0.67,1.84c0.05,0.14,0.11,0.33,0.11,0.47c0,0.41-0.33,0.76-0.95,0.76v0.38h3.71v-0.38
				C278.9,20.91,278.43,20.48,278.24,19.99z M272.42,17.11c0.71-1.94,1.56-4.23,1.56-4.23s0.85,2.3,1.55,4.23H272.42z"/>
			<path class="st2" d="M240.65,18.55c-0.47,1.1-1.07,2.06-2.75,2.06c-0.35,0-1.1,0-1.67,0c-0.61,0-0.88-0.21-0.88-0.71
				c0-0.19,0-1.94,0-3.76c0.41,0,1.67,0,2.27,0c0.88,0,1.35,0.5,1.49,1.43h0.35v-3.65h-0.38c-0.06,1.01-0.58,1.51-1.38,1.51
				c-0.67,0-1.98,0-2.36,0c0-1.74,0-3.36,0-3.53c0-0.39,0.25-0.47,0.58-0.47c0.33,0,1.07,0,2.03,0c1.26,0,1.7,0.52,1.97,1.7h0.36
				l-0.08-2.39h-7.6v0.39c0.88,0,1.29,0.42,1.29,1.37v7.05c0,0.95-0.4,1.37-1.29,1.37v0.38h7.8l0.68-2.74H240.65z"/>
			<path class="st2" d="M248.69,10.51l0.3,3.48h-0.38c-0.52-1.72-1.4-2.77-2.66-2.77c-0.9,0-1.43,0.61-1.43,1.43
				c0,0.93,0.69,1.48,1.54,2.06c0.85,0.57,1.42,0.96,1.7,1.15c0.79,0.55,1.54,1.54,1.54,2.66c0,1.72-1.29,2.99-2.99,2.99
				c-1.04,0-1.7-0.52-2.23-0.52c-0.29,0-0.43,0.29-0.49,0.52h-0.36L242.79,18h0.38c0.65,1.8,1.59,2.85,2.91,2.85
				c0.99,0,1.73-0.68,1.73-1.78c0-1-0.53-1.48-1.15-1.92c-0.7-0.49-1.56-1.1-2.08-1.45c-0.82-0.55-1.32-1.31-1.32-2.52
				c0-1.45,0.96-2.66,2.61-2.66c0.71,0,1.51,0.46,1.95,0.46c0.33,0,0.47-0.22,0.49-0.46H248.69z"/>
			<path class="st2" d="M227.7,10.73v0.39c0.82,0,1.31,0.63,1.31,1.59c0,0.65,0,3.68,0,5.56l-5.49-7.53h-2.39v0.39
				c0.47,0,0.85,0.22,1.04,0.47c0.02,0.03,0.13,0.18,0.3,0.41c0,1.15,0,6.14,0,7.09c0,1.21-0.41,1.84-1.37,1.84v0.38h3.38v-0.38
				c-0.83,0-1.32-0.55-1.32-1.51c0-0.78,0-4.93,0-6.49c2,2.7,6.31,8.55,6.31,8.55h0.23c0,0,0-7.44,0-8.51
				c0-1.35,0.55-1.84,1.37-1.84v-0.39H227.7z"/>
			<path class="st2" d="M215.98,10.73v0.39c0.82,0,1.31,0.63,1.31,1.59c0,0.65,0,3.68,0,5.56l-5.49-7.53h-2.39v0.39
				c0.47,0,0.85,0.22,1.04,0.47c0.02,0.03,0.13,0.18,0.31,0.41c0,1.15,0,6.14,0,7.09c0,1.21-0.41,1.84-1.37,1.84v0.38h3.37v-0.38
				c-0.82,0-1.32-0.55-1.32-1.51c0-0.78,0-4.93,0-6.49c2,2.7,6.31,8.55,6.31,8.55h0.22c0,0,0-7.44,0-8.51
				c0-1.35,0.55-1.84,1.37-1.84v-0.39H215.98z"/>
			<path class="st2" d="M201.81,7.68V7.3h-3.27l-4.26,11.42L190.01,7.3h-3.32v0.38c1.4,0,1.78,0.77,1.78,2.14c0,1.37,0,8.32,0,8.59
				c0,1.99-0.56,2.5-1.81,2.5v0.38h4.31v-0.38c-1.2,0-1.78-0.52-1.78-2.5c0-1.97,0-8.97,0-8.97l4.44,11.89h0.42l4.53-12.1
				c0,0,0,8.84,0,9.19c0,1.99-0.45,2.5-1.7,2.5v0.38h4.94v-0.38c-1.21,0-1.67-0.52-1.67-2.5c0-0.77,0-7.63,0-8.78
				C200.14,8.04,200.99,7.68,201.81,7.68z"/>
			<path class="st2" d="M205.85,12.48c0-0.95,0.49-1.37,1.37-1.37v-0.39h-4.26v0.39c0.89,0,1.37,0.42,1.37,1.37v7.05
				c0,0.95-0.48,1.37-1.37,1.37v0.38h4.26v-0.38c-0.89,0-1.37-0.42-1.37-1.37V12.48z"/>
			<path class="st2" d="M166.89,10.54c-2.61,0-4.72,2.14-4.72,5.47c0,3.33,2.11,5.47,4.72,5.47c2.6,0,4.72-2.14,4.72-5.47
				C171.61,12.68,169.49,10.54,166.89,10.54z M166.89,20.86c-1.98,0-3.11-1.9-3.11-4.85c0-2.95,1.13-4.85,3.11-4.85
				c1.98,0,3.11,1.9,3.11,4.85C170,18.96,168.87,20.86,166.89,20.86z"/>
			<path class="st2" d="M180.76,10.73h-7.68v0.39c0.88,0,1.29,0.42,1.29,1.37v7.05c0,0.95-0.4,1.37-1.29,1.37v0.38h4.09v-0.38
				c-0.85,0-1.34-0.41-1.34-1.37c0-0.19,0-1.74,0-3.4c0.4,0,1.59,0,2.19,0c0.88,0,1.35,0.5,1.49,1.43h0.35v-3.65h-0.38
				c-0.06,1.01-0.58,1.51-1.37,1.51c-0.67,0-1.91,0-2.28,0c0-1.71,0-3.35,0-3.53c0-0.39,0.25-0.47,0.57-0.47c0.33,0,1.15,0,2.12,0
				c1.26,0,1.7,0.52,1.98,1.7h0.35L180.76,10.73z"/>
			<path class="st2" d="M145.48,10.74l0.08,2.71h-0.36c-0.33-1.74-0.75-2.03-3.05-2.03v8.12c0,0.95,0.49,1.37,1.37,1.37v0.38h-4.25
				v-0.38c0.89,0,1.37-0.42,1.37-1.37v-8.12c-2.29,0-2.71,0.29-3.05,2.03h-0.36l0.08-2.71H145.48z"/>
			<path class="st2" d="M153.63,11.12v-0.38h3.24v0.38c-0.46,0-1.2,0.51-1.51,1.02c-0.34,0.56-2.61,4.33-2.61,4.33v3.07
				c0,1.03,0.38,1.37,1.48,1.37v0.38h-4.47v-0.38c1.11,0,1.48-0.35,1.48-1.37v-2.91c0,0-2.5-3.98-2.8-4.48
				c-0.3-0.49-0.9-1.04-1.48-1.04v-0.38h4.17v0.38c-0.58,0-0.99,0.26-0.99,0.56c0,0.2,0.1,0.43,0.17,0.55
				c0.07,0.13,2.12,3.49,2.12,3.49s2.03-3.52,2.08-3.62c0.06-0.1,0.08-0.22,0.08-0.34C154.59,11.47,154.43,11.12,153.63,11.12z"/>
			<path class="st2" d="M128.63,10.51l0.3,3.48h-0.38c-0.52-1.72-1.4-2.77-2.66-2.77c-0.9,0-1.43,0.61-1.43,1.43
				c0,0.93,0.69,1.48,1.54,2.06c0.85,0.57,1.43,0.96,1.7,1.15c0.79,0.55,1.54,1.54,1.54,2.66c0,1.72-1.29,2.99-2.99,2.99
				c-1.05,0-1.7-0.52-2.22-0.52c-0.29,0-0.42,0.29-0.49,0.52h-0.35L122.73,18h0.38c0.64,1.8,1.59,2.85,2.91,2.85
				c0.99,0,1.73-0.68,1.73-1.78c0-1-0.53-1.48-1.15-1.92c-0.7-0.49-1.56-1.1-2.09-1.45c-0.82-0.55-1.31-1.31-1.31-2.52
				c0-1.45,0.95-2.66,2.6-2.66c0.72,0,1.51,0.46,1.95,0.46c0.33,0,0.46-0.22,0.49-0.46H128.63z"/>
			<path class="st2" d="M134.45,12.5c0-0.95,0.49-1.38,1.37-1.38v-0.38h-4.25v0.38c0.89,0,1.37,0.42,1.37,1.38v7.05
				c0,0.95-0.49,1.37-1.37,1.37v0.38h4.25v-0.38c-0.88,0-1.37-0.42-1.37-1.37V12.5z"/>
			<path class="st2" d="M110.24,18.55c-0.47,1.1-1.07,2.06-2.74,2.06c-0.36,0-1.1,0-1.68,0c-0.61,0-0.88-0.21-0.88-0.71
				c0-0.19,0-1.94,0-3.76c0.42,0,1.67,0,2.28,0c0.88,0,1.35,0.5,1.48,1.43h0.36v-3.65h-0.38c-0.06,1.01-0.58,1.51-1.37,1.51
				c-0.68,0-1.98,0-2.36,0c0-1.74,0-3.36,0-3.53c0-0.39,0.25-0.47,0.58-0.47c0.33,0,1.07,0,2.03,0c1.26,0,1.7,0.52,1.98,1.7h0.36
				l-0.08-2.39h-7.6v0.39c0.89,0,1.29,0.42,1.29,1.37v7.05c0,0.95-0.4,1.37-1.29,1.37v0.38h7.79l0.69-2.74H110.24z"/>
			<path class="st2" d="M120.28,20.44c-0.24-0.3-2.58-3.51-3.11-4.22c1.89-0.4,2.56-1.36,2.56-2.75c0-1.64-1.23-2.74-3.48-2.74
				c-0.28,0-4.23,0-4.23,0v0.39c0.89,0,1.29,0.42,1.29,1.37v7.05c0,0.95-0.4,1.37-1.29,1.37v0.38h4.09v-0.38
				c-0.89,0-1.29-0.42-1.29-1.37v-3.1c0.28,0,0.55-0.01,0.8-0.02l3.43,4.88h2.31v-0.33C120.97,20.97,120.56,20.77,120.28,20.44z
				 M114.82,15.8v-3.57c0-0.73,0.15-0.9,0.96-0.9c1.78,0,2.44,0.88,2.44,2.2c0,1.62-1.22,2.28-3.04,2.28
				C115.04,15.8,114.93,15.8,114.82,15.8z"/>
			<path class="st2" d="M87.84,12.48c0-0.95,0.48-1.37,1.37-1.37v-0.39h-4.26v0.39c0.89,0,1.37,0.42,1.37,1.37v7.05
				c0,0.95-0.49,1.37-1.37,1.37v0.38h4.26v-0.38c-0.89,0-1.37-0.42-1.37-1.37V12.48z"/>
			<path class="st2" d="M94.82,11.11v-0.39h-3.87v0.39c0.47,0,0.96,0.3,1.29,1.1c0.33,0.79,3.82,9.25,3.82,9.25h0.25
				c0,0,3.05-8.51,3.32-9.25c0.27-0.74,0.74-1.1,1.18-1.1v-0.39h-2.99v0.39c0.66,0,1.02,0.36,1.02,0.82c0,0.14-0.04,0.29-0.08,0.41
				c-0.06,0.16-2.22,6.23-2.22,6.23s-2.55-6.13-2.63-6.32c-0.06-0.14-0.09-0.32-0.09-0.47C93.8,11.37,94.15,11.11,94.82,11.11z"/>
			<path class="st2" d="M59.35,7.68c1.15,0,1.75,0.58,1.75,2.22c0,1.65,0,3.82,0,6.54c0,3.3,1.81,5.05,4.97,5.05
				c2.71,0,4.8-1.65,4.8-4.83c0-2.94,0-6.04,0-7.13c0-1.1,0.33-1.84,1.65-1.84V7.3h-4.17v0.38c1.18,0,1.67,0.52,1.7,1.95
				c0.02,1.43,0.11,5.16,0.11,7.38c0,2.22-1.59,3.62-3.76,3.62c-2.09,0-3.74-1.24-3.74-3.84c0-2.61,0-6.15,0-7.3
				c0-1.08,0.42-1.81,1.65-1.81V7.3h-4.97V7.68z"/>
			<path class="st2" d="M79.39,10.73v0.39c0.82,0,1.32,0.63,1.32,1.59c0,0.65,0,3.68,0,5.56l-5.49-7.53h-2.39v0.39
				c0.47,0,0.85,0.22,1.05,0.47c0.02,0.03,0.13,0.18,0.3,0.41c0,1.15,0,6.14,0,7.09c0,1.21-0.41,1.84-1.37,1.84v0.38h3.37v-0.38
				c-0.82,0-1.32-0.55-1.32-1.51c0-0.78,0-4.93,0-6.49c2,2.7,6.31,8.55,6.31,8.55h0.22c0,0,0-7.44,0-8.51
				c0-1.35,0.55-1.84,1.37-1.84v-0.39H79.39z"/>
		</g>
	</g>
	<g>
		<path class="st3" d="M51.35,26.2c0.15,0.06,0.28,0.14,0.39,0.25c0.11,0.11,0.2,0.23,0.26,0.36c0.08,0.17,0.12,0.35,0.12,0.54
			c0,0.22-0.05,0.42-0.16,0.62c-0.11,0.2-0.26,0.35-0.45,0.46c-0.19,0.11-0.4,0.16-0.61,0.16c-0.21,0-0.41-0.05-0.61-0.16
			c-0.19-0.11-0.35-0.26-0.45-0.46c-0.11-0.19-0.16-0.4-0.16-0.62c0-0.18,0.04-0.35,0.11-0.5c0.07-0.15,0.16-0.28,0.27-0.38
			c0.11-0.1,0.22-0.18,0.35-0.24c0.17-0.07,0.33-0.11,0.51-0.11C51.05,26.11,51.2,26.14,51.35,26.2z M52.22,26.74
			c-0.07-0.15-0.16-0.29-0.28-0.41c-0.12-0.13-0.27-0.23-0.45-0.31c-0.18-0.08-0.38-0.13-0.59-0.13c-0.22,0-0.43,0.05-0.63,0.14
			c-0.14,0.07-0.28,0.16-0.4,0.29c-0.12,0.12-0.22,0.27-0.3,0.45c-0.08,0.18-0.12,0.37-0.12,0.58c0,0.25,0.06,0.5,0.19,0.73
			c0.13,0.23,0.31,0.41,0.54,0.54c0.23,0.13,0.47,0.19,0.72,0.19c0.22,0,0.44-0.05,0.64-0.15c0.15-0.07,0.29-0.18,0.42-0.31
			c0.13-0.13,0.22-0.28,0.3-0.46c0.07-0.18,0.1-0.36,0.1-0.54C52.35,27.14,52.31,26.94,52.22,26.74z M50.85,27.55
			c0.09,0,0.16,0.01,0.21,0.04c0.05,0.03,0.08,0.06,0.1,0.1c0.02,0.04,0.03,0.11,0.04,0.21c0.01,0.14,0.02,0.22,0.03,0.24h0.34
			c-0.01-0.04-0.02-0.12-0.02-0.21c0-0.1-0.01-0.17-0.02-0.21c-0.01-0.06-0.04-0.12-0.06-0.16c-0.03-0.04-0.07-0.08-0.11-0.1
			c-0.04-0.02-0.1-0.04-0.18-0.06c0.08-0.01,0.14-0.02,0.18-0.04c0.06-0.03,0.12-0.08,0.16-0.14c0.04-0.06,0.06-0.13,0.06-0.22
			c0-0.08-0.02-0.16-0.06-0.22c-0.04-0.06-0.08-0.11-0.14-0.15c-0.06-0.04-0.13-0.07-0.22-0.08c-0.06-0.01-0.16-0.02-0.29-0.02
			h-0.58v1.61h0.36v-0.59H50.85z M51.04,26.81c0.06,0.02,0.1,0.04,0.13,0.08c0.03,0.04,0.05,0.09,0.05,0.14
			c0,0.05-0.01,0.1-0.04,0.14c-0.03,0.04-0.07,0.07-0.12,0.09c-0.05,0.02-0.11,0.03-0.17,0.03h-0.24v-0.51h0.24
			C50.93,26.79,50.98,26.79,51.04,26.81z"/>
	</g>
	<polygon class="st3" points="45.38,21.45 36.89,7.35 39.23,7.35 39.23,0 25.11,0 25.11,7.35 27.44,7.35 24.2,12.74 20.96,7.35 
		23.3,7.35 23.3,0 9.17,0 9.17,7.35 11.51,7.35 3.03,21.45 0,21.45 0,28.8 14.4,28.8 14.4,21.45 11.82,21.45 16.24,14.11 
		17.95,16.95 16.31,16.95 16.31,24.3 32.1,24.3 32.1,16.95 30.45,16.95 32.17,14.11 36.59,21.45 34,21.45 34,28.8 48.4,28.8 
		48.4,21.45 	"/>
</g>
</svg>
